<?xml version="1.0" encoding="UTF-8"?>
<svg id="Layer_2" data-name="Layer 2" xmlns="http://www.w3.org/2000/svg" viewBox="0 0 3536.07 3581.77">
  <defs>
    <style>
      .cls-1 {
        fill: #fff;
      }

      .cls-2 {
        fill: #f7921e;
      }

      .cls-3 {
        fill: #00a79d;
      }

      .cls-4 {
        fill: #8dc63f;
      }

      .cls-5 {
        fill: #2bb673;
      }

      .cls-6 {
        fill: #00a0dc;
      }

      .cls-7 {
        fill: #ed1c24;
      }

      .cls-8 {
        fill: #dcddde;
      }

      .cls-9 {
        fill: #231f20;
      }
    </style>
  </defs>
  <g id="Capa_1" data-name="Capa 1">
    <g>
      <g>
        <g>
          <circle class="cls-2" cx="40.54" cy="427.91" r="34.04"/>
          <path class="cls-9" d="m40.54,468.45c-22.35,0-40.54-18.19-40.54-40.54s18.19-40.54,40.54-40.54,40.54,18.19,40.54,40.54-18.19,40.54-40.54,40.54Zm0-68.08c-15.19,0-27.54,12.35-27.54,27.54s12.35,27.54,27.54,27.54,27.54-12.35,27.54-27.54-12.35-27.54-27.54-27.54Z"/>
        </g>
        <g>
          <path class="cls-1" d="m290.37,6.5H124.74c-45.21,0-81.85,36.65-81.85,81.85v392.66c0,45.21,36.65,81.85,81.85,81.85h236.3c45.21,0,81.85-36.65,81.85-81.85V159.02L290.37,6.5Z"/>
          <path class="cls-9" d="m361.04,569.36H124.74c-48.72,0-88.35-39.63-88.35-88.35V88.35C36.39,39.63,76.02,0,124.74,0h165.63c1.72,0,3.38.68,4.6,1.9l152.52,152.52c1.22,1.22,1.9,2.87,1.9,4.6v322c0,48.72-39.63,88.35-88.35,88.35ZM124.74,13c-41.55,0-75.35,33.8-75.35,75.35v392.66c0,41.55,33.8,75.35,75.35,75.35h236.3c41.55,0,75.35-33.8,75.35-75.35V161.71L287.68,13H124.74Z"/>
        </g>
        <g>
          <path class="cls-8" d="m290.37,6.5l152.52,152.52h-119.99c-17.96,0-32.53-14.56-32.53-32.53V6.5Z"/>
          <path class="cls-9" d="m442.91,165.52h-120.01c-21.52,0-39.03-17.51-39.03-39.03V6.5c0-2.63,1.58-5,4.01-6.01,2.43-1.01,5.22-.45,7.08,1.41l152.22,152.22c1.36,1.19,2.22,2.94,2.22,4.89,0,3.59-2.91,6.5-6.5,6.5ZM296.87,22.19v104.3c0,14.35,11.67,26.03,26.03,26.03h104.3L296.87,22.19Z"/>
        </g>
        <g>
          <path class="cls-2" d="m43.64,231.62c-20.22,0-36.61,16.39-36.61,36.61v153.31h.67c3.26-16.88,18.1-29.64,35.94-29.64h368.68v-160.28H43.64Z"/>
          <path class="cls-9" d="m7.7,428.03h-.67c-3.59,0-6.5-2.91-6.5-6.5v-153.31c0-23.77,19.34-43.11,43.11-43.11h368.68c3.59,0,6.5,2.91,6.5,6.5v160.28c0,3.59-2.91,6.5-6.5,6.5H43.64c-14.4,0-26.83,10.25-29.56,24.37-.59,3.06-3.27,5.27-6.38,5.27Zm35.94-189.92c-16.6,0-30.11,13.51-30.11,30.11v129.44c7.84-7.64,18.53-12.27,30.11-12.27h362.18v-147.28H43.64Z"/>
        </g>
      </g>
      <g>
        <path class="cls-1" d="m106.74,344.43c-1.11-.74-1.85-2.09-1.85-3.69,0-2.71,2.09-4.8,4.68-4.8,1.23,0,2.34.49,2.95,1.11,8.12,6.89,16.25,10.22,27.2,10.22,11.57,0,19.2-6.15,19.2-14.65v-.25c0-8-4.31-12.56-22.4-16.37-19.82-4.31-28.93-10.71-28.93-24.86v-.25c0-13.54,11.94-23.51,28.31-23.51,11.32,0,19.57,2.83,27.45,8.49.98.74,2.09,2.09,2.09,3.94,0,2.59-2.09,4.68-4.68,4.68-1.11,0-1.97-.25-2.83-.86-7.26-5.29-14.28-7.51-22.28-7.51-11.2,0-18.34,6.15-18.34,13.91v.25c0,8.12,4.43,12.68,23.39,16.74,19.2,4.19,28.06,11.2,28.06,24.37v.25c0,14.77-12.31,24.37-29.42,24.37-12.56,0-23.02-3.94-32.62-11.57Z"/>
        <path class="cls-1" d="m211.74,320.92l-32-44.81c-.62-.98-1.11-2.09-1.11-3.32,0-2.59,2.34-4.8,5.05-4.8,2.09,0,3.45,1.23,4.68,2.95l28.43,40.99,28.68-40.99c1.23-1.72,2.46-2.95,4.55-2.95,2.71,0,4.8,2.22,4.8,4.8,0,1.23-.74,2.58-1.35,3.57l-31.88,44.31v29.79c0,2.71-2.22,4.92-4.92,4.92s-4.92-2.22-4.92-4.92v-29.54Z"/>
        <path class="cls-1" d="m265.54,344.43c-1.11-.74-1.85-2.09-1.85-3.69,0-2.71,2.09-4.8,4.68-4.8,1.23,0,2.34.49,2.95,1.11,8.12,6.89,16.25,10.22,27.2,10.22,11.57,0,19.2-6.15,19.2-14.65v-.25c0-8-4.31-12.56-22.4-16.37-19.82-4.31-28.93-10.71-28.93-24.86v-.25c0-13.54,11.94-23.51,28.31-23.51,11.32,0,19.57,2.83,27.45,8.49.98.74,2.09,2.09,2.09,3.94,0,2.59-2.09,4.68-4.68,4.68-1.11,0-1.97-.25-2.83-.86-7.26-5.29-14.28-7.51-22.28-7.51-11.2,0-18.34,6.15-18.34,13.91v.25c0,8.12,4.43,12.68,23.39,16.74,19.2,4.19,28.06,11.2,28.06,24.37v.25c0,14.77-12.31,24.37-29.42,24.37-12.56,0-23.02-3.94-32.62-11.57Z"/>
      </g>
    </g>
    <g>
      <g>
        <g>
          <circle class="cls-6" cx="40.54" cy="1182.43" r="34.04" transform="translate(-905.64 472.12) rotate(-51.14)"/>
          <path class="cls-9" d="m40.54,1222.98c-22.35,0-40.54-18.19-40.54-40.54s18.19-40.54,40.54-40.54,40.54,18.19,40.54,40.54-18.19,40.54-40.54,40.54Zm0-68.08c-15.19,0-27.54,12.35-27.54,27.54s12.35,27.54,27.54,27.54,27.54-12.35,27.54-27.54-12.35-27.54-27.54-27.54Z"/>
        </g>
        <g>
          <path class="cls-1" d="m290.37,761.02H124.74c-45.21,0-81.85,36.65-81.85,81.85v392.66c0,45.21,36.65,81.85,81.85,81.85h236.3c45.21,0,81.85-36.65,81.85-81.85v-322l-152.52-152.52Z"/>
          <path class="cls-9" d="m361.04,1323.89H124.74c-48.72,0-88.35-39.63-88.35-88.35v-392.66c0-48.72,39.63-88.35,88.35-88.35h165.63c1.72,0,3.38.68,4.6,1.9l152.52,152.52c1.22,1.22,1.9,2.87,1.9,4.6v322c0,48.72-39.63,88.35-88.35,88.35ZM124.74,767.52c-41.55,0-75.35,33.8-75.35,75.35v392.66c0,41.55,33.8,75.35,75.35,75.35h236.3c41.55,0,75.35-33.8,75.35-75.35v-319.3l-148.71-148.71H124.74Z"/>
        </g>
        <g>
          <path class="cls-8" d="m290.37,761.02l152.52,152.52h-119.99c-17.96,0-32.53-14.56-32.53-32.53v-119.99Z"/>
          <path class="cls-9" d="m442.91,920.04h-120.01c-21.52,0-39.03-17.51-39.03-39.03v-119.99c0-2.63,1.58-5,4.01-6.01,2.43-1.01,5.22-.45,7.08,1.41l152.22,152.22c1.36,1.19,2.22,2.94,2.22,4.89,0,3.59-2.91,6.5-6.5,6.5Zm-146.04-143.32v104.3c0,14.35,11.67,26.03,26.03,26.03h104.3l-130.32-130.32Z"/>
        </g>
        <g>
          <path class="cls-6" d="m43.64,986.14c-20.22,0-36.61,16.39-36.61,36.61v153.31h.67c3.26-16.88,18.1-29.64,35.94-29.64h368.68v-160.28H43.64Z"/>
          <path class="cls-9" d="m7.7,1182.56h-.67c-3.59,0-6.5-2.91-6.5-6.5v-153.31c0-23.77,19.34-43.11,43.11-43.11h368.68c3.59,0,6.5,2.91,6.5,6.5v160.28c0,3.59-2.91,6.5-6.5,6.5H43.64c-14.4,0-26.83,10.25-29.56,24.37-.59,3.06-3.27,5.27-6.38,5.27Zm35.94-189.92c-16.6,0-30.11,13.51-30.11,30.11v129.44c7.84-7.64,18.53-12.27,30.11-12.27h362.18v-147.28H43.64Z"/>
        </g>
      </g>
      <g>
        <path class="cls-1" d="m90.62,1026.51c0-2.71,2.22-4.92,4.8-4.92h27.45c19.45,0,32.25,10.34,32.25,27.33v.25c0,18.59-15.51,28.19-33.85,28.19h-20.93v26.1c0,2.71-2.22,4.92-4.92,4.92s-4.8-2.22-4.8-4.92v-76.93Zm31.02,41.97c14.28,0,23.63-7.63,23.63-18.96v-.25c0-12.31-9.23-18.71-23.14-18.71h-21.79v37.91h21.29Z"/>
        <path class="cls-1" d="m172.85,1026.02c0-2.59,2.22-4.8,4.8-4.8h1.35c2.22,0,3.57,1.11,4.92,2.83l52.31,66.72v-64.99c0-2.59,2.09-4.8,4.8-4.8s4.68,2.22,4.68,4.8v77.79c0,2.59-1.85,4.55-4.43,4.55h-.49c-2.09,0-3.57-1.23-5.05-2.95l-53.42-68.32v66.72c0,2.59-2.09,4.8-4.8,4.8s-4.68-2.22-4.68-4.8v-77.55Z"/>
        <path class="cls-1" d="m266.28,1064.92v-.25c0-23.63,17.36-44.56,43.21-44.56,13.05,0,21.54,3.45,29.42,9.23,1.11.86,1.97,2.22,1.97,3.94,0,2.71-2.22,4.92-4.8,4.92-1.11,0-2.09-.49-3.08-1.23-6.15-4.68-13.05-7.88-23.88-7.88-19.08,0-32.74,16.12-32.74,35.33v.25c0,20.56,13.17,35.82,34.1,35.82,9.85,0,18.96-3.82,24.86-8.62v-21.42h-23.14c-2.34,0-4.31-1.97-4.31-4.31,0-2.46,1.97-4.43,4.31-4.43h27.7c2.58,0,4.8,2.22,4.8,4.92v26.22c0,2.34-1.11,4.43-3.32,5.91-7.88,5.79-18.46,10.46-31.27,10.46-27.08,0-43.82-19.69-43.82-44.31Z"/>
      </g>
    </g>
    <g>
      <g>
        <g>
          <circle class="cls-4" cx="40.54" cy="1934.98" r="34.04" transform="translate(-405.88 51.77) rotate(-12.14)"/>
          <path class="cls-9" d="m40.54,1975.52c-22.35,0-40.54-18.19-40.54-40.54s18.19-40.54,40.54-40.54,40.54,18.19,40.54,40.54-18.19,40.54-40.54,40.54Zm0-68.08c-15.19,0-27.54,12.35-27.54,27.54s12.35,27.54,27.54,27.54,27.54-12.35,27.54-27.54-12.35-27.54-27.54-27.54Z"/>
        </g>
        <g>
          <path class="cls-1" d="m290.37,1513.56H124.74c-45.21,0-81.85,36.65-81.85,81.85v392.66c0,45.21,36.65,81.85,81.85,81.85h236.3c45.21,0,81.85-36.65,81.85-81.85v-322l-152.52-152.52Z"/>
          <path class="cls-9" d="m361.04,2076.43H124.74c-48.72,0-88.35-39.63-88.35-88.35v-392.66c0-48.72,39.63-88.35,88.35-88.35h165.63c1.72,0,3.38.68,4.6,1.9l152.52,152.52c1.22,1.22,1.9,2.87,1.9,4.6v322c0,48.72-39.63,88.35-88.35,88.35Zm-236.3-556.36c-41.55,0-75.35,33.8-75.35,75.35v392.66c0,41.55,33.8,75.35,75.35,75.35h236.3c41.55,0,75.35-33.8,75.35-75.35v-319.3l-148.71-148.71H124.74Z"/>
        </g>
        <g>
          <path class="cls-8" d="m290.37,1513.56l152.52,152.52h-119.99c-17.96,0-32.53-14.56-32.53-32.53v-119.99Z"/>
          <path class="cls-9" d="m442.91,1672.58h-120.01c-21.52,0-39.03-17.51-39.03-39.03v-119.99c0-2.63,1.58-5,4.01-6.01,2.43-1.01,5.22-.45,7.08,1.41l152.22,152.22c1.36,1.19,2.22,2.94,2.22,4.89,0,3.59-2.91,6.5-6.5,6.5Zm-146.04-143.32v104.3c0,14.35,11.67,26.03,26.03,26.03h104.3l-130.32-130.32Z"/>
        </g>
        <g>
          <path class="cls-4" d="m43.64,1738.68c-20.22,0-36.61,16.39-36.61,36.61v153.31h.67c3.26-16.88,18.1-29.64,35.94-29.64h368.68v-160.28H43.64Z"/>
          <path class="cls-9" d="m7.7,1935.1h-.67c-3.59,0-6.5-2.91-6.5-6.5v-153.31c0-23.77,19.34-43.11,43.11-43.11h368.68c3.59,0,6.5,2.91,6.5,6.5v160.28c0,3.59-2.91,6.5-6.5,6.5H43.64c-14.4,0-26.83,10.25-29.56,24.37-.59,3.06-3.27,5.27-6.38,5.27Zm35.94-189.92c-16.6,0-30.11,13.51-30.11,30.11v129.44c7.84-7.64,18.53-12.27,30.11-12.27h362.18v-147.28H43.64Z"/>
        </g>
      </g>
      <g>
        <path class="cls-1" d="m74.31,1779.49c0-2.71,2.22-4.92,4.8-4.92h25.11c27.08,0,45.79,18.59,45.79,42.84v.25c0,24.25-18.71,43.08-45.79,43.08h-25.11c-2.58,0-4.8-2.22-4.8-4.92v-76.32Zm29.91,72.26c21.79,0,35.7-14.77,35.7-33.85v-.25c0-19.08-13.91-34.1-35.7-34.1h-20.19v68.19h20.19Z"/>
        <path class="cls-1" d="m161.46,1781.09c-.25-.74-.49-1.48-.49-2.21,0-2.58,2.34-4.92,5.05-4.92,2.46,0,4.31,1.85,5.05,4.06l23.76,68.44,22.53-68.69c.74-2.22,2.22-3.82,4.8-3.82h.62c2.46,0,4.06,1.6,4.8,3.82l22.53,68.69,23.88-68.69c.74-2.22,2.34-3.82,4.68-3.82,2.58,0,4.92,2.34,4.92,4.8,0,.74-.37,1.6-.62,2.34l-27.57,76.56c-.86,2.46-2.58,4.18-5.05,4.18h-.74c-2.46,0-4.19-1.72-5.05-4.18l-22.4-66.22-22.28,66.22c-.86,2.46-2.58,4.18-5.05,4.18h-.74c-2.46,0-4.18-1.6-5.05-4.18l-27.57-76.56Z"/>
        <path class="cls-1" d="m302.16,1779.49c0-2.71,2.22-4.92,4.8-4.92h53.3c2.46,0,4.43,1.97,4.43,4.43s-1.97,4.55-4.43,4.55h-48.38v30.77h42.84c2.46,0,4.43,1.97,4.43,4.43s-1.97,4.43-4.43,4.43h-42.84v33.23c0,2.71-2.22,4.92-4.92,4.92s-4.8-2.22-4.8-4.92v-76.93Z"/>
      </g>
    </g>
    <g>
      <g>
        <g>
          <circle class="cls-3" cx="40.54" cy="2687.78" r="34.04"/>
          <path class="cls-9" d="m40.54,2728.32c-22.35,0-40.54-18.19-40.54-40.54s18.19-40.54,40.54-40.54,40.54,18.19,40.54,40.54-18.19,40.54-40.54,40.54Zm0-68.08c-15.19,0-27.54,12.35-27.54,27.54s12.35,27.54,27.54,27.54,27.54-12.35,27.54-27.54-12.35-27.54-27.54-27.54Z"/>
        </g>
        <g>
          <path class="cls-1" d="m290.37,2266.37H124.74c-45.21,0-81.85,36.65-81.85,81.85v392.66c0,45.21,36.65,81.85,81.85,81.85h236.3c45.21,0,81.85-36.65,81.85-81.85v-322l-152.52-152.52Z"/>
          <path class="cls-9" d="m361.04,2829.23H124.74c-48.72,0-88.35-39.63-88.35-88.35v-392.66c0-48.72,39.63-88.35,88.35-88.35h165.63c1.72,0,3.38.68,4.6,1.9l152.52,152.52c1.22,1.22,1.9,2.87,1.9,4.6v322c0,48.72-39.63,88.35-88.35,88.35Zm-236.3-556.36c-41.55,0-75.35,33.8-75.35,75.35v392.66c0,41.55,33.8,75.35,75.35,75.35h236.3c41.55,0,75.35-33.8,75.35-75.35v-319.3l-148.71-148.71H124.74Z"/>
        </g>
        <g>
          <path class="cls-8" d="m290.37,2266.37l152.52,152.52h-119.99c-17.96,0-32.53-14.56-32.53-32.53v-119.99Z"/>
          <path class="cls-9" d="m442.91,2425.39h-120.01c-21.52,0-39.03-17.51-39.03-39.03v-119.99c0-2.63,1.58-5,4.01-6,2.43-1.01,5.22-.45,7.08,1.41l152.22,152.22c1.36,1.19,2.22,2.94,2.22,4.89,0,3.59-2.91,6.5-6.5,6.5Zm-146.04-143.32v104.3c0,14.35,11.67,26.03,26.03,26.03h104.3l-130.32-130.32Z"/>
        </g>
        <g>
          <path class="cls-3" d="m43.64,2491.49c-20.22,0-36.61,16.39-36.61,36.61v153.31h.67c3.26-16.88,18.1-29.64,35.94-29.64h368.68v-160.28H43.64Z"/>
          <path class="cls-9" d="m7.7,2687.9h-.67c-3.59,0-6.5-2.91-6.5-6.5v-153.31c0-23.77,19.34-43.11,43.11-43.11h368.68c3.59,0,6.5,2.91,6.5,6.5v160.28c0,3.59-2.91,6.5-6.5,6.5H43.64c-14.4,0-26.83,10.25-29.56,24.37-.59,3.06-3.27,5.27-6.38,5.27Zm35.94-189.92c-16.6,0-30.11,13.51-30.11,30.11v129.44c7.84-7.64,18.53-12.27,30.11-12.27h362.18v-147.28H43.64Z"/>
        </g>
      </g>
      <g>
        <path class="cls-1" d="m88.52,2531.86c0-2.71,2.22-4.92,4.8-4.92s4.92,2.22,4.92,4.92v33.97h49.73v-33.97c0-2.71,2.22-4.92,4.92-4.92s4.8,2.22,4.8,4.92v77.55c0,2.71-2.22,4.92-4.8,4.92s-4.92-2.22-4.92-4.92v-34.47h-49.73v34.47c0,2.71-2.22,4.92-4.92,4.92s-4.8-2.22-4.8-4.92v-77.55Z"/>
        <path class="cls-1" d="m204.85,2536.54h-24.99c-2.46,0-4.55-1.97-4.55-4.43s2.09-4.55,4.55-4.55h59.82c2.46,0,4.55,2.09,4.55,4.55s-2.09,4.43-4.55,4.43h-24.99v72.87c0,2.71-2.22,4.92-4.92,4.92s-4.92-2.22-4.92-4.92v-72.87Z"/>
        <path class="cls-1" d="m261.85,2531.98c0-2.58,2.22-4.8,4.8-4.8h1.11c2.09,0,3.57,1.11,4.55,2.58l30.77,46.28,30.77-46.28c.98-1.6,2.58-2.58,4.55-2.58h1.11c2.58,0,4.8,2.22,4.8,4.8v77.42c0,2.71-2.22,4.92-4.8,4.92s-4.92-2.34-4.92-4.92v-64.25l-27.57,40.5c-1.11,1.6-2.34,2.46-4.06,2.46s-3.08-.86-4.19-2.46l-27.45-40.37v64.25c0,2.71-2.09,4.8-4.8,4.8s-4.68-2.09-4.68-4.8v-77.55Z"/>
      </g>
    </g>
    <g>
      <g>
        <g>
          <circle class="cls-6" cx="40.54" cy="3440.32" r="34.04" transform="translate(-722.35 85.41) rotate(-12.14)"/>
          <path class="cls-9" d="m40.54,3480.86c-22.35,0-40.54-18.19-40.54-40.54s18.19-40.54,40.54-40.54,40.54,18.19,40.54,40.54-18.19,40.54-40.54,40.54Zm0-68.08c-15.19,0-27.54,12.35-27.54,27.54s12.35,27.54,27.54,27.54,27.54-12.35,27.54-27.54-12.35-27.54-27.54-27.54Z"/>
        </g>
        <g>
          <path class="cls-1" d="m290.37,3018.91H124.74c-45.21,0-81.85,36.65-81.85,81.85v392.66c0,45.21,36.65,81.85,81.85,81.85h236.3c45.21,0,81.85-36.65,81.85-81.85v-322l-152.52-152.52Z"/>
          <path class="cls-9" d="m361.04,3581.77H124.74c-48.72,0-88.35-39.63-88.35-88.35v-392.66c0-48.72,39.63-88.35,88.35-88.35h165.63c1.72,0,3.38.68,4.6,1.9l152.52,152.52c1.22,1.22,1.9,2.87,1.9,4.6v322c0,48.72-39.63,88.35-88.35,88.35Zm-236.3-556.36c-41.55,0-75.35,33.8-75.35,75.35v392.66c0,41.55,33.8,75.35,75.35,75.35h236.3c41.55,0,75.35-33.8,75.35-75.35v-319.3l-148.71-148.71H124.74Z"/>
        </g>
        <g>
          <path class="cls-8" d="m290.37,3018.91l152.52,152.52h-119.99c-17.96,0-32.53-14.56-32.53-32.53v-119.99Z"/>
          <path class="cls-9" d="m442.91,3177.93h-120.01c-21.52,0-39.03-17.51-39.03-39.03v-119.99c0-2.63,1.58-5,4.01-6,2.43-1.01,5.22-.45,7.08,1.41l152.22,152.22c1.36,1.19,2.22,2.94,2.22,4.89,0,3.59-2.91,6.5-6.5,6.5Zm-146.04-143.32v104.3c0,14.35,11.67,26.03,26.03,26.03h104.3l-130.32-130.32Z"/>
        </g>
        <g>
          <path class="cls-6" d="m43.64,3244.03c-20.22,0-36.61,16.39-36.61,36.61v153.31h.67c3.26-16.88,18.1-29.64,35.94-29.64h368.68v-160.28H43.64Z"/>
          <path class="cls-9" d="m7.7,3440.45h-.67c-3.59,0-6.5-2.91-6.5-6.5v-153.31c0-23.77,19.34-43.11,43.11-43.11h368.68c3.59,0,6.5,2.91,6.5,6.5v160.28c0,3.59-2.91,6.5-6.5,6.5H43.64c-14.4,0-26.83,10.25-29.56,24.37-.59,3.06-3.27,5.27-6.38,5.27Zm35.94-189.92c-16.6,0-30.11,13.51-30.11,30.11v129.44c7.84-7.64,18.53-12.27,30.11-12.27h362.18v-147.28H43.64Z"/>
        </g>
      </g>
      <g>
        <path class="cls-1" d="m122.99,3362.51v-.25c0-1.72.62-2.95,1.72-4.31l54.04-68.69h-49.98c-2.46,0-4.43-1.97-4.43-4.31,0-2.46,1.97-4.43,4.43-4.43h58.71c2.34,0,4.43,1.97,4.43,4.19v.25c0,1.72-.62,2.95-1.72,4.31l-54.04,68.69h51.95c2.46,0,4.43,1.97,4.43,4.31,0,2.46-1.97,4.43-4.43,4.43h-60.56c-2.46,0-4.55-1.97-4.55-4.19Z"/>
        <path class="cls-1" d="m213.1,3284.84c0-2.71,2.22-4.92,4.8-4.92s4.92,2.22,4.92,4.92v77.55c0,2.71-2.22,4.92-4.92,4.92s-4.8-2.22-4.8-4.92v-77.55Z"/>
        <path class="cls-1" d="m248.06,3285.46c0-2.71,2.22-4.92,4.8-4.92h27.45c19.45,0,32.25,10.34,32.25,27.33v.25c0,18.59-15.51,28.19-33.85,28.19h-20.93v26.1c0,2.71-2.22,4.92-4.92,4.92s-4.8-2.22-4.8-4.92v-76.93Zm31.02,41.97c14.28,0,23.63-7.63,23.63-18.96v-.25c0-12.31-9.23-18.71-23.14-18.71h-21.79v37.91h21.29Z"/>
      </g>
    </g>
    <g>
      <g>
        <g>
          <circle class="cls-5" cx="657.87" cy="427.91" r="34.04"/>
          <path class="cls-9" d="m657.87,468.45c-22.35,0-40.54-18.19-40.54-40.54s18.19-40.54,40.54-40.54,40.54,18.19,40.54,40.54-18.19,40.54-40.54,40.54Zm0-68.08c-15.19,0-27.54,12.35-27.54,27.54s12.35,27.54,27.54,27.54,27.54-12.35,27.54-27.54-12.36-27.54-27.54-27.54Z"/>
        </g>
        <g>
          <path class="cls-1" d="m907.7,6.5h-165.63c-45.21,0-81.85,36.65-81.85,81.85v392.66c0,45.21,36.65,81.85,81.85,81.85h236.3c45.21,0,81.85-36.65,81.85-81.85V159.02L907.7,6.5Z"/>
          <path class="cls-9" d="m978.37,569.36h-236.3c-48.72,0-88.35-39.63-88.35-88.35V88.35C653.72,39.63,693.35,0,742.07,0h165.63c1.72,0,3.38.68,4.6,1.9l152.52,152.52c1.22,1.22,1.9,2.87,1.9,4.6v322c0,48.72-39.63,88.35-88.35,88.35ZM742.07,13c-41.55,0-75.35,33.8-75.35,75.35v392.66c0,41.55,33.8,75.35,75.35,75.35h236.3c41.55,0,75.35-33.8,75.35-75.35V161.71L905.01,13h-162.94Z"/>
        </g>
        <g>
          <path class="cls-8" d="m907.7,6.5l152.52,152.52h-119.99c-17.96,0-32.53-14.56-32.53-32.53V6.5Z"/>
          <path class="cls-9" d="m1060.24,165.52h-120.01c-21.52,0-39.03-17.51-39.03-39.03V6.5c0-2.63,1.58-5,4.01-6.01,2.43-1.01,5.22-.45,7.08,1.41l152.22,152.22c1.36,1.19,2.22,2.94,2.22,4.89,0,3.59-2.91,6.5-6.5,6.5ZM914.2,22.19v104.3c0,14.35,11.67,26.03,26.03,26.03h104.3L914.2,22.19Z"/>
        </g>
        <g>
          <path class="cls-5" d="m660.97,231.62c-20.22,0-36.61,16.39-36.61,36.61v153.31h.67c3.26-16.88,18.1-29.64,35.94-29.64h368.68v-160.28h-368.68Z"/>
          <path class="cls-9" d="m625.03,428.03h-.67c-3.59,0-6.5-2.91-6.5-6.5v-153.31c0-23.77,19.34-43.11,43.11-43.11h368.68c3.59,0,6.5,2.91,6.5,6.5v160.28c0,3.59-2.91,6.5-6.5,6.5h-368.68c-14.4,0-26.83,10.25-29.56,24.37-.59,3.06-3.27,5.27-6.38,5.27Zm35.94-189.92c-16.6,0-30.11,13.51-30.11,30.11v129.44c7.84-7.64,18.53-12.27,30.11-12.27h362.18v-147.28h-362.18Z"/>
        </g>
      </g>
      <g>
        <path class="cls-1" d="m724.49,273.53c0-2.71,2.22-4.92,4.8-4.92h32.25c10.59,0,19.08,3.2,24.5,8.62,4.19,4.19,6.65,10.22,6.65,16.99v.25c0,14.16-9.6,22.4-23.02,24.99l21.42,27.57c.98,1.11,1.6,2.22,1.6,3.57,0,2.59-2.46,4.8-4.92,4.8-1.97,0-3.45-1.11-4.55-2.58l-24.25-31.51h-24.74v29.17c0,2.71-2.22,4.92-4.92,4.92s-4.8-2.22-4.8-4.92v-76.93Zm36.19,39.02c12.92,0,22.16-6.65,22.16-17.73v-.25c0-10.59-8.12-16.99-22.03-16.99h-26.59v34.96h26.46Z"/>
        <path class="cls-1" d="m810.41,344.43c-1.11-.74-1.85-2.09-1.85-3.69,0-2.71,2.09-4.8,4.68-4.8,1.23,0,2.34.49,2.95,1.11,8.12,6.89,16.25,10.22,27.2,10.22,11.57,0,19.2-6.15,19.2-14.65v-.25c0-8-4.31-12.56-22.4-16.37-19.82-4.31-28.93-10.71-28.93-24.86v-.25c0-13.54,11.94-23.51,28.31-23.51,11.32,0,19.57,2.83,27.45,8.49.98.74,2.09,2.09,2.09,3.94,0,2.59-2.09,4.68-4.68,4.68-1.11,0-1.97-.25-2.83-.86-7.26-5.29-14.28-7.51-22.28-7.51-11.2,0-18.34,6.15-18.34,13.91v.25c0,8.12,4.43,12.68,23.39,16.74,19.2,4.19,28.06,11.2,28.06,24.37v.25c0,14.77-12.31,24.37-29.42,24.37-12.56,0-23.02-3.94-32.62-11.57Z"/>
        <path class="cls-1" d="m887.97,344.43c-1.11-.74-1.85-2.09-1.85-3.69,0-2.71,2.09-4.8,4.68-4.8,1.23,0,2.34.49,2.95,1.11,8.12,6.89,16.25,10.22,27.2,10.22,11.57,0,19.2-6.15,19.2-14.65v-.25c0-8-4.31-12.56-22.4-16.37-19.82-4.31-28.93-10.71-28.93-24.86v-.25c0-13.54,11.94-23.51,28.31-23.51,11.32,0,19.57,2.83,27.45,8.49.98.74,2.09,2.09,2.09,3.94,0,2.59-2.09,4.68-4.68,4.68-1.11,0-1.97-.25-2.83-.86-7.26-5.29-14.28-7.51-22.28-7.51-11.2,0-18.34,6.15-18.34,13.91v.25c0,8.12,4.43,12.68,23.39,16.74,19.2,4.19,28.06,11.2,28.06,24.37v.25c0,14.77-12.31,24.37-29.42,24.37-12.56,0-23.02-3.94-32.62-11.57Z"/>
      </g>
    </g>
    <g>
      <g>
        <g>
          <circle class="cls-5" cx="657.87" cy="1182.43" r="34.04" transform="translate(-643.42 811.51) rotate(-45)"/>
          <path class="cls-9" d="m657.87,1222.98c-22.35,0-40.54-18.19-40.54-40.54s18.19-40.54,40.54-40.54,40.54,18.19,40.54,40.54-18.19,40.54-40.54,40.54Zm0-68.08c-15.19,0-27.54,12.35-27.54,27.54s12.35,27.54,27.54,27.54,27.54-12.35,27.54-27.54-12.36-27.54-27.54-27.54Z"/>
        </g>
        <g>
          <path class="cls-1" d="m907.7,761.02h-165.63c-45.21,0-81.85,36.65-81.85,81.85v392.66c0,45.21,36.65,81.85,81.85,81.85h236.3c45.21,0,81.85-36.65,81.85-81.85v-322l-152.52-152.52Z"/>
          <path class="cls-9" d="m978.37,1323.89h-236.3c-48.72,0-88.35-39.63-88.35-88.35v-392.66c0-48.72,39.63-88.35,88.35-88.35h165.63c1.72,0,3.38.68,4.6,1.9l152.52,152.52c1.22,1.22,1.9,2.87,1.9,4.6v322c0,48.72-39.63,88.35-88.35,88.35Zm-236.3-556.36c-41.55,0-75.35,33.8-75.35,75.35v392.66c0,41.55,33.8,75.35,75.35,75.35h236.3c41.55,0,75.35-33.8,75.35-75.35v-319.3l-148.71-148.71h-162.94Z"/>
        </g>
        <g>
          <path class="cls-8" d="m907.7,761.02l152.52,152.52h-119.99c-17.96,0-32.53-14.56-32.53-32.53v-119.99Z"/>
          <path class="cls-9" d="m1060.24,920.04h-120.01c-21.52,0-39.03-17.51-39.03-39.03v-119.99c0-2.63,1.58-5,4.01-6.01,2.43-1.01,5.22-.45,7.08,1.41l152.22,152.22c1.36,1.19,2.22,2.94,2.22,4.89,0,3.59-2.91,6.5-6.5,6.5Zm-146.04-143.32v104.3c0,14.35,11.67,26.03,26.03,26.03h104.3l-130.32-130.32Z"/>
        </g>
        <g>
          <path class="cls-5" d="m660.97,986.14c-20.22,0-36.61,16.39-36.61,36.61v153.31h.67c3.26-16.88,18.1-29.64,35.94-29.64h368.68v-160.28h-368.68Z"/>
          <path class="cls-9" d="m625.03,1182.56h-.67c-3.59,0-6.5-2.91-6.5-6.5v-153.31c0-23.77,19.34-43.11,43.11-43.11h368.68c3.59,0,6.5,2.91,6.5,6.5v160.28c0,3.59-2.91,6.5-6.5,6.5h-368.68c-14.4,0-26.83,10.25-29.56,24.37-.59,3.06-3.27,5.27-6.38,5.27Zm35.94-189.92c-16.6,0-30.11,13.51-30.11,30.11v129.44c7.84-7.64,18.53-12.27,30.11-12.27h362.18v-147.28h-362.18Z"/>
        </g>
      </g>
      <g>
        <path class="cls-1" d="m717.6,1096.68c-.74-.74-1.35-1.97-1.35-3.32,0-2.59,2.22-4.8,4.8-4.8,1.6,0,2.71.86,3.45,1.72,4.68,6.4,9.72,9.72,17.73,9.72,9.72,0,16.86-7.02,16.86-20.68v-53.42c0-2.71,2.22-4.92,4.92-4.92s4.8,2.22,4.8,4.92v53.3c0,10.09-2.95,17.73-7.88,22.65-4.8,4.68-11.32,7.14-18.96,7.14-11.32,0-19.08-5.17-24.37-12.31Z"/>
        <path class="cls-1" d="m791.83,1026.51c0-2.71,2.22-4.92,4.8-4.92h27.45c19.45,0,32.25,10.34,32.25,27.33v.25c0,18.59-15.51,28.19-33.85,28.19h-20.93v26.1c0,2.71-2.22,4.92-4.92,4.92s-4.8-2.22-4.8-4.92v-76.93Zm31.02,41.97c14.28,0,23.63-7.63,23.63-18.96v-.25c0-12.31-9.23-18.71-23.14-18.71h-21.79v37.91h21.3Z"/>
        <path class="cls-1" d="m870.24,1064.92v-.25c0-23.63,17.36-44.56,43.21-44.56,13.05,0,21.54,3.45,29.42,9.23,1.11.86,1.97,2.22,1.97,3.94,0,2.71-2.22,4.92-4.8,4.92-1.11,0-2.09-.49-3.08-1.23-6.15-4.68-13.05-7.88-23.88-7.88-19.08,0-32.74,16.12-32.74,35.33v.25c0,20.56,13.17,35.82,34.1,35.82,9.85,0,18.96-3.82,24.86-8.62v-21.42h-23.14c-2.34,0-4.31-1.97-4.31-4.31,0-2.46,1.97-4.43,4.31-4.43h27.7c2.59,0,4.8,2.22,4.8,4.92v26.22c0,2.34-1.11,4.43-3.32,5.91-7.88,5.79-18.46,10.46-31.27,10.46-27.08,0-43.82-19.69-43.82-44.31Z"/>
      </g>
    </g>
    <g>
      <g>
        <g>
          <circle class="cls-7" cx="657.87" cy="1934.98" r="34.04" transform="translate(-421.08 199.24) rotate(-13.09)"/>
          <path class="cls-9" d="m657.87,1975.52c-22.35,0-40.54-18.19-40.54-40.54s18.19-40.54,40.54-40.54,40.54,18.19,40.54,40.54-18.19,40.54-40.54,40.54Zm0-68.08c-15.19,0-27.54,12.35-27.54,27.54s12.35,27.54,27.54,27.54,27.54-12.35,27.54-27.54-12.36-27.54-27.54-27.54Z"/>
        </g>
        <g>
          <path class="cls-1" d="m907.7,1513.56h-165.63c-45.21,0-81.85,36.65-81.85,81.85v392.66c0,45.21,36.65,81.85,81.85,81.85h236.3c45.21,0,81.85-36.65,81.85-81.85v-322l-152.52-152.52Z"/>
          <path class="cls-9" d="m978.37,2076.43h-236.3c-48.72,0-88.35-39.63-88.35-88.35v-392.66c0-48.72,39.63-88.35,88.35-88.35h165.63c1.72,0,3.38.68,4.6,1.9l152.52,152.52c1.22,1.22,1.9,2.87,1.9,4.6v322c0,48.72-39.63,88.35-88.35,88.35Zm-236.3-556.36c-41.55,0-75.35,33.8-75.35,75.35v392.66c0,41.55,33.8,75.35,75.35,75.35h236.3c41.55,0,75.35-33.8,75.35-75.35v-319.3l-148.71-148.71h-162.94Z"/>
        </g>
        <g>
          <path class="cls-8" d="m907.7,1513.56l152.52,152.52h-119.99c-17.96,0-32.53-14.56-32.53-32.53v-119.99Z"/>
          <path class="cls-9" d="m1060.24,1672.58h-120.01c-21.52,0-39.03-17.51-39.03-39.03v-119.99c0-2.63,1.58-5,4.01-6.01,2.43-1.01,5.22-.45,7.08,1.41l152.22,152.22c1.36,1.19,2.22,2.94,2.22,4.89,0,3.59-2.91,6.5-6.5,6.5Zm-146.04-143.32v104.3c0,14.35,11.67,26.03,26.03,26.03h104.3l-130.32-130.32Z"/>
        </g>
        <g>
          <path class="cls-7" d="m660.97,1738.68c-20.22,0-36.61,16.39-36.61,36.61v153.31h.67c3.26-16.88,18.1-29.64,35.94-29.64h368.68v-160.28h-368.68Z"/>
          <path class="cls-9" d="m625.03,1935.1h-.67c-3.59,0-6.5-2.91-6.5-6.5v-153.31c0-23.77,19.34-43.11,43.11-43.11h368.68c3.59,0,6.5,2.91,6.5,6.5v160.28c0,3.59-2.91,6.5-6.5,6.5h-368.68c-14.4,0-26.83,10.25-29.56,24.37-.59,3.06-3.27,5.27-6.38,5.27Zm35.94-189.92c-16.6,0-30.11,13.51-30.11,30.11v129.44c7.84-7.64,18.53-12.27,30.11-12.27h362.18v-147.28h-362.18Z"/>
        </g>
      </g>
      <g>
        <path class="cls-1" d="m718.52,1779.49c0-2.71,2.22-4.92,4.8-4.92h27.45c19.45,0,32.25,10.34,32.25,27.33v.25c0,18.59-15.51,28.19-33.85,28.19h-20.93v26.1c0,2.71-2.22,4.92-4.92,4.92s-4.8-2.22-4.8-4.92v-76.93Zm31.02,41.97c14.28,0,23.63-7.63,23.63-18.96v-.25c0-12.31-9.23-18.71-23.14-18.71h-21.79v37.91h21.29Z"/>
        <path class="cls-1" d="m797.67,1850.4c-1.11-.74-1.85-2.09-1.85-3.69,0-2.71,2.09-4.8,4.68-4.8,1.23,0,2.34.49,2.95,1.11,8.12,6.89,16.25,10.22,27.2,10.22,11.57,0,19.2-6.15,19.2-14.65v-.25c0-8-4.31-12.55-22.4-16.37-19.82-4.31-28.93-10.71-28.93-24.86v-.25c0-13.54,11.94-23.51,28.31-23.51,11.32,0,19.57,2.83,27.45,8.49.98.74,2.09,2.09,2.09,3.94,0,2.59-2.09,4.68-4.68,4.68-1.11,0-1.97-.25-2.83-.86-7.26-5.29-14.28-7.51-22.28-7.51-11.2,0-18.34,6.15-18.34,13.91v.25c0,8.12,4.43,12.68,23.39,16.74,19.2,4.18,28.06,11.2,28.06,24.37v.25c0,14.77-12.31,24.37-29.42,24.37-12.56,0-23.02-3.94-32.62-11.57Z"/>
        <path class="cls-1" d="m879.53,1779.49c0-2.71,2.22-4.92,4.8-4.92h25.11c27.08,0,45.79,18.59,45.79,42.84v.25c0,24.25-18.71,43.08-45.79,43.08h-25.11c-2.59,0-4.8-2.22-4.8-4.92v-76.32Zm29.91,72.26c21.79,0,35.7-14.77,35.7-33.85v-.25c0-19.08-13.91-34.1-35.7-34.1h-20.19v68.19h20.19Z"/>
      </g>
    </g>
    <g>
      <g>
        <g>
          <circle class="cls-5" cx="657.87" cy="2687.78" r="34.04"/>
          <path class="cls-9" d="m657.87,2728.32c-22.35,0-40.54-18.19-40.54-40.54s18.19-40.54,40.54-40.54,40.54,18.19,40.54,40.54-18.19,40.54-40.54,40.54Zm0-68.08c-15.19,0-27.54,12.35-27.54,27.54s12.35,27.54,27.54,27.54,27.54-12.35,27.54-27.54-12.36-27.54-27.54-27.54Z"/>
        </g>
        <g>
          <path class="cls-1" d="m907.7,2266.37h-165.63c-45.21,0-81.85,36.65-81.85,81.85v392.66c0,45.21,36.65,81.85,81.85,81.85h236.3c45.21,0,81.85-36.65,81.85-81.85v-322l-152.52-152.52Z"/>
          <path class="cls-9" d="m978.37,2829.23h-236.3c-48.72,0-88.35-39.63-88.35-88.35v-392.66c0-48.72,39.63-88.35,88.35-88.35h165.63c1.72,0,3.38.68,4.6,1.9l152.52,152.52c1.22,1.22,1.9,2.87,1.9,4.6v322c0,48.72-39.63,88.35-88.35,88.35Zm-236.3-556.36c-41.55,0-75.35,33.8-75.35,75.35v392.66c0,41.55,33.8,75.35,75.35,75.35h236.3c41.55,0,75.35-33.8,75.35-75.35v-319.3l-148.71-148.71h-162.94Z"/>
        </g>
        <g>
          <path class="cls-8" d="m907.7,2266.37l152.52,152.52h-119.99c-17.96,0-32.53-14.56-32.53-32.53v-119.99Z"/>
          <path class="cls-9" d="m1060.24,2425.39h-120.01c-21.52,0-39.03-17.51-39.03-39.03v-119.99c0-2.63,1.58-5,4.01-6,2.43-1.01,5.22-.45,7.08,1.41l152.22,152.22c1.36,1.19,2.22,2.94,2.22,4.89,0,3.59-2.91,6.5-6.5,6.5Zm-146.04-143.32v104.3c0,14.35,11.67,26.03,26.03,26.03h104.3l-130.32-130.32Z"/>
        </g>
        <g>
          <path class="cls-5" d="m660.97,2491.49c-20.22,0-36.61,16.39-36.61,36.61v153.31h.67c3.26-16.88,18.1-29.64,35.94-29.64h368.68v-160.28h-368.68Z"/>
          <path class="cls-9" d="m625.03,2687.9h-.67c-3.59,0-6.5-2.91-6.5-6.5v-153.31c0-23.77,19.34-43.11,43.11-43.11h368.68c3.59,0,6.5,2.91,6.5,6.5v160.28c0,3.59-2.91,6.5-6.5,6.5h-368.68c-14.4,0-26.83,10.25-29.56,24.37-.59,3.06-3.27,5.27-6.38,5.27Zm35.94-189.92c-16.6,0-30.11,13.51-30.11,30.11v129.44c7.84-7.64,18.53-12.27,30.11-12.27h362.18v-147.28h-362.18Z"/>
        </g>
      </g>
      <g>
        <path class="cls-1" d="m697.84,2531.98c0-2.58,2.22-4.8,4.8-4.8h1.11c2.09,0,3.57,1.11,4.55,2.58l30.77,46.28,30.77-46.28c.98-1.6,2.59-2.58,4.55-2.58h1.11c2.59,0,4.8,2.22,4.8,4.8v77.42c0,2.71-2.22,4.92-4.8,4.92s-4.92-2.34-4.92-4.92v-64.25l-27.57,40.5c-1.11,1.6-2.34,2.46-4.06,2.46s-3.08-.86-4.19-2.46l-27.45-40.37v64.25c0,2.71-2.09,4.8-4.8,4.8s-4.68-2.09-4.68-4.8v-77.55Z"/>
        <path class="cls-1" d="m800.87,2570.88v-.25c0-23.76,17.85-44.56,44.07-44.56s43.82,20.56,43.82,44.31v.25c0,23.76-17.85,44.56-44.07,44.56s-43.82-20.56-43.82-44.31Zm77.8,0v-.25c0-19.57-14.28-35.57-33.97-35.57s-33.73,15.76-33.73,35.33v.25c0,19.57,14.28,35.57,33.97,35.57s33.73-15.76,33.73-35.33Z"/>
        <path class="cls-1" d="m932.59,2610.64l-33.23-76.69c-.37-.74-.49-1.35-.49-2.22,0-2.46,2.22-4.8,4.92-4.8,2.46,0,4.19,1.6,5.05,3.69l29.79,71.39,29.91-71.64c.86-1.72,2.58-3.45,4.8-3.45,2.71,0,4.8,2.22,4.8,4.68,0,.74-.12,1.35-.37,1.97l-33.36,77.06c-1.11,2.46-2.83,4.06-5.66,4.06h-.49c-2.83,0-4.68-1.6-5.66-4.06Z"/>
      </g>
    </g>
    <g>
      <g>
        <g>
          <circle class="cls-2" cx="657.87" cy="3440.32" r="34.04" transform="translate(-761.97 238.34) rotate(-13.09)"/>
          <path class="cls-9" d="m657.87,3480.86c-22.35,0-40.54-18.19-40.54-40.54s18.19-40.54,40.54-40.54,40.54,18.19,40.54,40.54-18.19,40.54-40.54,40.54Zm0-68.08c-15.19,0-27.54,12.35-27.54,27.54s12.35,27.54,27.54,27.54,27.54-12.35,27.54-27.54-12.36-27.54-27.54-27.54Z"/>
        </g>
        <g>
          <path class="cls-1" d="m907.7,3018.91h-165.63c-45.21,0-81.85,36.65-81.85,81.85v392.66c0,45.21,36.65,81.85,81.85,81.85h236.3c45.21,0,81.85-36.65,81.85-81.85v-322l-152.52-152.52Z"/>
          <path class="cls-9" d="m978.37,3581.77h-236.3c-48.72,0-88.35-39.63-88.35-88.35v-392.66c0-48.72,39.63-88.35,88.35-88.35h165.63c1.72,0,3.38.68,4.6,1.9l152.52,152.52c1.22,1.22,1.9,2.87,1.9,4.6v322c0,48.72-39.63,88.35-88.35,88.35Zm-236.3-556.36c-41.55,0-75.35,33.8-75.35,75.35v392.66c0,41.55,33.8,75.35,75.35,75.35h236.3c41.55,0,75.35-33.8,75.35-75.35v-319.3l-148.71-148.71h-162.94Z"/>
        </g>
        <g>
          <path class="cls-8" d="m907.7,3018.91l152.52,152.52h-119.99c-17.96,0-32.53-14.56-32.53-32.53v-119.99Z"/>
          <path class="cls-9" d="m1060.24,3177.93h-120.01c-21.52,0-39.03-17.51-39.03-39.03v-119.99c0-2.63,1.58-5,4.01-6,2.43-1.01,5.22-.45,7.08,1.41l152.22,152.22c1.36,1.19,2.22,2.94,2.22,4.89,0,3.59-2.91,6.5-6.5,6.5Zm-146.04-143.32v104.3c0,14.35,11.67,26.03,26.03,26.03h104.3l-130.32-130.32Z"/>
        </g>
        <g>
          <path class="cls-2" d="m660.97,3244.03c-20.22,0-36.61,16.39-36.61,36.61v153.31h.67c3.26-16.88,18.1-29.64,35.94-29.64h368.68v-160.28h-368.68Z"/>
          <path class="cls-9" d="m625.03,3440.45h-.67c-3.59,0-6.5-2.91-6.5-6.5v-153.31c0-23.77,19.34-43.11,43.11-43.11h368.68c3.59,0,6.5,2.91,6.5,6.5v160.28c0,3.59-2.91,6.5-6.5,6.5h-368.68c-14.4,0-26.83,10.25-29.56,24.37-.59,3.06-3.27,5.27-6.38,5.27Zm35.94-189.92c-16.6,0-30.11,13.51-30.11,30.11v129.44c7.84-7.64,18.53-12.27,30.11-12.27h362.18v-147.28h-362.18Z"/>
        </g>
      </g>
      <g>
        <path class="cls-1" d="m677.28,3355.62c-.74-.74-1.35-1.97-1.35-3.32,0-2.58,2.22-4.8,4.8-4.8,1.6,0,2.71.86,3.45,1.72,4.68,6.4,9.72,9.72,17.73,9.72,9.72,0,16.86-7.02,16.86-20.68v-53.42c0-2.71,2.22-4.92,4.92-4.92s4.8,2.22,4.8,4.92v53.3c0,10.09-2.95,17.73-7.88,22.65-4.8,4.68-11.32,7.14-18.96,7.14-11.32,0-19.08-5.17-24.37-12.31Z"/>
        <path class="cls-1" d="m743.63,3360.3l34.96-76.44c1.23-2.71,3.08-4.31,6.15-4.31h.49c2.95,0,4.92,1.6,6.03,4.31l34.96,76.32c.37.86.62,1.72.62,2.46,0,2.58-2.09,4.68-4.68,4.68-2.34,0-3.94-1.6-4.8-3.57l-8.99-19.82h-47.27l-8.99,20.06c-.86,2.09-2.46,3.32-4.68,3.32-2.46,0-4.43-1.97-4.43-4.43,0-.74.12-1.6.62-2.58Zm60.93-25.23l-19.82-44.07-19.82,44.07h39.64Z"/>
        <path class="cls-1" d="m861.81,3363.62l-33.23-76.69c-.37-.74-.49-1.35-.49-2.22,0-2.46,2.22-4.8,4.92-4.8,2.46,0,4.19,1.6,5.05,3.69l29.79,71.39,29.91-71.64c.86-1.72,2.59-3.45,4.8-3.45,2.71,0,4.8,2.22,4.8,4.68,0,.74-.12,1.35-.37,1.97l-33.36,77.06c-1.11,2.46-2.83,4.06-5.66,4.06h-.49c-2.83,0-4.68-1.6-5.66-4.06Z"/>
        <path class="cls-1" d="m909.08,3360.3l34.96-76.44c1.23-2.71,3.08-4.31,6.15-4.31h.49c2.95,0,4.92,1.6,6.03,4.31l34.96,76.32c.37.86.62,1.72.62,2.46,0,2.58-2.09,4.68-4.68,4.68-2.34,0-3.94-1.6-4.8-3.57l-8.99-19.82h-47.27l-8.99,20.06c-.86,2.09-2.46,3.32-4.68,3.32-2.46,0-4.43-1.97-4.43-4.43,0-.74.12-1.6.62-2.58Zm60.93-25.23l-19.82-44.07-19.82,44.07h39.64Z"/>
      </g>
    </g>
    <g>
      <g>
        <g>
          <circle class="cls-7" cx="1275.21" cy="427.91" r="34.04"/>
          <path class="cls-9" d="m1275.21,468.45c-22.35,0-40.54-18.19-40.54-40.54s18.19-40.54,40.54-40.54,40.54,18.19,40.54,40.54-18.19,40.54-40.54,40.54Zm0-68.08c-15.19,0-27.54,12.35-27.54,27.54s12.35,27.54,27.54,27.54,27.54-12.35,27.54-27.54-12.35-27.54-27.54-27.54Z"/>
        </g>
        <g>
          <path class="cls-1" d="m1525.04,6.5h-165.63c-45.21,0-81.85,36.65-81.85,81.85v392.66c0,45.21,36.65,81.85,81.85,81.85h236.3c45.21,0,81.85-36.65,81.85-81.85V159.02L1525.04,6.5Z"/>
          <path class="cls-9" d="m1595.7,569.36h-236.3c-48.72,0-88.35-39.63-88.35-88.35V88.35C1271.05,39.63,1310.69,0,1359.4,0h165.63c1.72,0,3.38.68,4.6,1.9l152.52,152.52c1.22,1.22,1.9,2.87,1.9,4.6v322c0,48.72-39.63,88.35-88.35,88.35ZM1359.4,13c-41.55,0-75.35,33.8-75.35,75.35v392.66c0,41.55,33.8,75.35,75.35,75.35h236.3c41.55,0,75.35-33.8,75.35-75.35V161.71L1522.35,13h-162.94Z"/>
        </g>
        <g>
          <path class="cls-8" d="m1525.04,6.5l152.52,152.52h-119.99c-17.96,0-32.53-14.56-32.53-32.53V6.5Z"/>
          <path class="cls-9" d="m1677.57,165.52h-120.01c-21.52,0-39.03-17.51-39.03-39.03V6.5c0-2.63,1.58-5,4.01-6.01,2.43-1.01,5.22-.45,7.08,1.41l152.22,152.22c1.36,1.19,2.22,2.94,2.22,4.89,0,3.59-2.91,6.5-6.5,6.5Zm-146.04-143.32v104.3c0,14.35,11.67,26.03,26.03,26.03h104.3l-130.32-130.32Z"/>
        </g>
        <g>
          <path class="cls-7" d="m1278.3,231.62c-20.22,0-36.61,16.39-36.61,36.61v153.31h.67c3.26-16.88,18.1-29.64,35.94-29.64h368.68v-160.28h-368.68Z"/>
          <path class="cls-9" d="m1242.36,428.03h-.67c-3.59,0-6.5-2.91-6.5-6.5v-153.31c0-23.77,19.34-43.11,43.11-43.11h368.68c3.59,0,6.5,2.91,6.5,6.5v160.28c0,3.59-2.91,6.5-6.5,6.5h-368.68c-14.4,0-26.83,10.25-29.56,24.37-.59,3.06-3.27,5.27-6.38,5.27Zm35.94-189.92c-16.6,0-30.11,13.51-30.11,30.11v129.44c7.84-7.64,18.53-12.27,30.11-12.27h362.18v-147.28h-362.18Z"/>
        </g>
      </g>
      <g>
        <path class="cls-1" d="m1382.13,272.92c0-2.71,2.22-4.92,4.8-4.92s4.92,2.22,4.92,4.92v77.55c0,2.71-2.22,4.92-4.92,4.92s-4.8-2.22-4.8-4.92v-77.55Z"/>
        <path class="cls-1" d="m1417.08,273.04c0-2.59,2.22-4.8,4.8-4.8h1.35c2.22,0,3.57,1.11,4.92,2.83l52.31,66.72v-64.99c0-2.59,2.09-4.8,4.8-4.8s4.68,2.22,4.68,4.8v77.79c0,2.59-1.85,4.55-4.43,4.55h-.49c-2.09,0-3.57-1.23-5.05-2.95l-53.42-68.32v66.72c0,2.59-2.09,4.8-4.8,4.8s-4.68-2.22-4.68-4.8v-77.55Z"/>
        <path class="cls-1" d="m1515.19,272.92c0-2.71,2.22-4.92,4.8-4.92s4.92,2.22,4.92,4.92v77.55c0,2.71-2.22,4.92-4.92,4.92s-4.8-2.22-4.8-4.92v-77.55Z"/>
      </g>
    </g>
    <g>
      <g>
        <g>
          <circle class="cls-2" cx="1275.21" cy="1182.43" r="34.04" transform="translate(-462.61 1248.03) rotate(-45)"/>
          <path class="cls-9" d="m1275.21,1222.98c-22.35,0-40.54-18.19-40.54-40.54s18.19-40.54,40.54-40.54,40.54,18.19,40.54,40.54-18.19,40.54-40.54,40.54Zm0-68.08c-15.19,0-27.54,12.35-27.54,27.54s12.35,27.54,27.54,27.54,27.54-12.35,27.54-27.54-12.35-27.54-27.54-27.54Z"/>
        </g>
        <g>
          <path class="cls-1" d="m1525.04,761.02h-165.63c-45.21,0-81.85,36.65-81.85,81.85v392.66c0,45.21,36.65,81.85,81.85,81.85h236.3c45.21,0,81.85-36.65,81.85-81.85v-322l-152.52-152.52Z"/>
          <path class="cls-9" d="m1595.7,1323.89h-236.3c-48.72,0-88.35-39.63-88.35-88.35v-392.66c0-48.72,39.63-88.35,88.35-88.35h165.63c1.72,0,3.38.68,4.6,1.9l152.52,152.52c1.22,1.22,1.9,2.87,1.9,4.6v322c0,48.72-39.63,88.35-88.35,88.35Zm-236.3-556.36c-41.55,0-75.35,33.8-75.35,75.35v392.66c0,41.55,33.8,75.35,75.35,75.35h236.3c41.55,0,75.35-33.8,75.35-75.35v-319.3l-148.71-148.71h-162.94Z"/>
        </g>
        <g>
          <path class="cls-8" d="m1525.04,761.02l152.52,152.52h-119.99c-17.96,0-32.53-14.56-32.53-32.53v-119.99Z"/>
          <path class="cls-9" d="m1677.57,920.04h-120.01c-21.52,0-39.03-17.51-39.03-39.03v-119.99c0-2.63,1.58-5,4.01-6.01,2.43-1.01,5.22-.45,7.08,1.41l152.22,152.22c1.36,1.19,2.22,2.94,2.22,4.89,0,3.59-2.91,6.5-6.5,6.5Zm-146.04-143.32v104.3c0,14.35,11.67,26.03,26.03,26.03h104.3l-130.32-130.32Z"/>
        </g>
        <g>
          <path class="cls-2" d="m1278.3,986.14c-20.22,0-36.61,16.39-36.61,36.61v153.31h.67c3.26-16.88,18.1-29.64,35.94-29.64h368.68v-160.28h-368.68Z"/>
          <path class="cls-9" d="m1242.36,1182.56h-.67c-3.59,0-6.5-2.91-6.5-6.5v-153.31c0-23.77,19.34-43.11,43.11-43.11h368.68c3.59,0,6.5,2.91,6.5,6.5v160.28c0,3.59-2.91,6.5-6.5,6.5h-368.68c-14.4,0-26.83,10.25-29.56,24.37-.59,3.06-3.27,5.27-6.38,5.27Zm35.94-189.92c-16.6,0-30.11,13.51-30.11,30.11v129.44c7.84-7.64,18.53-12.27,30.11-12.27h362.18v-147.28h-362.18Z"/>
        </g>
      </g>
      <g>
        <path class="cls-1" d="m1328.45,1026.51c0-2.71,2.22-4.92,4.8-4.92h32.25c10.59,0,19.08,3.2,24.5,8.62,4.19,4.19,6.65,10.22,6.65,16.99v.25c0,14.16-9.6,22.4-23.02,24.99l21.42,27.57c.98,1.11,1.6,2.22,1.6,3.57,0,2.59-2.46,4.8-4.92,4.8-1.97,0-3.45-1.11-4.55-2.59l-24.25-31.51h-24.74v29.17c0,2.71-2.22,4.92-4.92,4.92s-4.8-2.22-4.8-4.92v-76.93Zm36.19,39.02c12.92,0,22.16-6.65,22.16-17.73v-.25c0-10.59-8.12-16.99-22.03-16.99h-26.59v34.96h26.46Z"/>
        <path class="cls-1" d="m1412.16,1101.35l34.96-76.44c1.23-2.71,3.08-4.31,6.15-4.31h.49c2.95,0,4.92,1.6,6.03,4.31l34.96,76.32c.37.86.62,1.72.62,2.46,0,2.58-2.09,4.68-4.68,4.68-2.34,0-3.94-1.6-4.8-3.57l-8.99-19.82h-47.27l-8.99,20.06c-.86,2.09-2.46,3.32-4.68,3.32-2.46,0-4.43-1.97-4.43-4.43,0-.74.12-1.6.62-2.58Zm60.93-25.23l-19.82-44.07-19.82,44.07h39.64Z"/>
        <path class="cls-1" d="m1513.96,1026.51c0-2.71,2.22-4.92,4.8-4.92h32.25c10.59,0,19.08,3.2,24.5,8.62,4.19,4.19,6.65,10.22,6.65,16.99v.25c0,14.16-9.6,22.4-23.02,24.99l21.42,27.57c.98,1.11,1.6,2.22,1.6,3.57,0,2.59-2.46,4.8-4.92,4.8-1.97,0-3.45-1.11-4.55-2.59l-24.25-31.51h-24.74v29.17c0,2.71-2.22,4.92-4.92,4.92s-4.8-2.22-4.8-4.92v-76.93Zm36.19,39.02c12.92,0,22.16-6.65,22.16-17.73v-.25c0-10.59-8.12-16.99-22.03-16.99h-26.59v34.96h26.46Z"/>
      </g>
    </g>
    <g>
      <g>
        <g>
          <circle class="cls-6" cx="1275.21" cy="1934.98" r="34.04" transform="translate(-410.45 344.74) rotate(-13.28)"/>
          <path class="cls-9" d="m1275.21,1975.52c-22.35,0-40.54-18.19-40.54-40.54s18.19-40.54,40.54-40.54,40.54,18.19,40.54,40.54-18.19,40.54-40.54,40.54Zm0-68.08c-15.19,0-27.54,12.35-27.54,27.54s12.35,27.54,27.54,27.54,27.54-12.35,27.54-27.54-12.35-27.54-27.54-27.54Z"/>
        </g>
        <g>
          <path class="cls-1" d="m1525.04,1513.56h-165.63c-45.21,0-81.85,36.65-81.85,81.85v392.66c0,45.21,36.65,81.85,81.85,81.85h236.3c45.21,0,81.85-36.65,81.85-81.85v-322l-152.52-152.52Z"/>
          <path class="cls-9" d="m1595.7,2076.43h-236.3c-48.72,0-88.35-39.63-88.35-88.35v-392.66c0-48.72,39.63-88.35,88.35-88.35h165.63c1.72,0,3.38.68,4.6,1.9l152.52,152.52c1.22,1.22,1.9,2.87,1.9,4.6v322c0,48.72-39.63,88.35-88.35,88.35Zm-236.3-556.36c-41.55,0-75.35,33.8-75.35,75.35v392.66c0,41.55,33.8,75.35,75.35,75.35h236.3c41.55,0,75.35-33.8,75.35-75.35v-319.3l-148.71-148.71h-162.94Z"/>
        </g>
        <g>
          <path class="cls-8" d="m1525.04,1513.56l152.52,152.52h-119.99c-17.96,0-32.53-14.56-32.53-32.53v-119.99Z"/>
          <path class="cls-9" d="m1677.57,1672.58h-120.01c-21.52,0-39.03-17.51-39.03-39.03v-119.99c0-2.63,1.58-5,4.01-6.01,2.43-1.01,5.22-.45,7.08,1.41l152.22,152.22c1.36,1.19,2.22,2.94,2.22,4.89,0,3.59-2.91,6.5-6.5,6.5Zm-146.04-143.32v104.3c0,14.35,11.67,26.03,26.03,26.03h104.3l-130.32-130.32Z"/>
        </g>
        <g>
          <path class="cls-6" d="m1278.3,1738.68c-20.22,0-36.61,16.39-36.61,36.61v153.31h.67c3.26-16.88,18.1-29.64,35.94-29.64h368.68v-160.28h-368.68Z"/>
          <path class="cls-9" d="m1242.36,1935.1h-.67c-3.59,0-6.5-2.91-6.5-6.5v-153.31c0-23.77,19.34-43.11,43.11-43.11h368.68c3.59,0,6.5,2.91,6.5,6.5v160.28c0,3.59-2.91,6.5-6.5,6.5h-368.68c-14.4,0-26.83,10.25-29.56,24.37-.59,3.06-3.27,5.27-6.38,5.27Zm35.94-189.92c-16.6,0-30.11,13.51-30.11,30.11v129.44c7.84-7.64,18.53-12.27,30.11-12.27h362.18v-147.28h-362.18Z"/>
        </g>
      </g>
      <g>
        <path class="cls-1" d="m1394.25,1854.33l34.96-76.44c1.23-2.71,3.08-4.31,6.15-4.31h.49c2.95,0,4.92,1.6,6.03,4.31l34.96,76.32c.37.86.62,1.72.62,2.46,0,2.58-2.09,4.68-4.68,4.68-2.34,0-3.94-1.6-4.8-3.57l-8.99-19.82h-47.27l-8.99,20.06c-.86,2.09-2.46,3.32-4.68,3.32-2.46,0-4.43-1.97-4.43-4.43,0-.74.12-1.6.62-2.59Zm60.93-25.23l-19.82-44.07-19.82,44.07h39.64Z"/>
        <path class="cls-1" d="m1496.91,1778.88c0-2.71,2.22-4.92,4.8-4.92s4.92,2.22,4.92,4.92v77.55c0,2.71-2.22,4.92-4.92,4.92s-4.8-2.22-4.8-4.92v-77.55Z"/>
      </g>
    </g>
    <g>
      <g>
        <g>
          <circle class="cls-4" cx="1275.21" cy="2687.78" r="34.04"/>
          <path class="cls-9" d="m1275.21,2728.32c-22.35,0-40.54-18.19-40.54-40.54s18.19-40.54,40.54-40.54,40.54,18.19,40.54,40.54-18.19,40.54-40.54,40.54Zm0-68.08c-15.19,0-27.54,12.35-27.54,27.54s12.35,27.54,27.54,27.54,27.54-12.35,27.54-27.54-12.35-27.54-27.54-27.54Z"/>
        </g>
        <g>
          <path class="cls-1" d="m1525.04,2266.37h-165.63c-45.21,0-81.85,36.65-81.85,81.85v392.66c0,45.21,36.65,81.85,81.85,81.85h236.3c45.21,0,81.85-36.65,81.85-81.85v-322l-152.52-152.52Z"/>
          <path class="cls-9" d="m1595.7,2829.23h-236.3c-48.72,0-88.35-39.63-88.35-88.35v-392.66c0-48.72,39.63-88.35,88.35-88.35h165.63c1.72,0,3.38.68,4.6,1.9l152.52,152.52c1.22,1.22,1.9,2.87,1.9,4.6v322c0,48.72-39.63,88.35-88.35,88.35Zm-236.3-556.36c-41.55,0-75.35,33.8-75.35,75.35v392.66c0,41.55,33.8,75.35,75.35,75.35h236.3c41.55,0,75.35-33.8,75.35-75.35v-319.3l-148.71-148.71h-162.94Z"/>
        </g>
        <g>
          <path class="cls-8" d="m1525.04,2266.37l152.52,152.52h-119.99c-17.96,0-32.53-14.56-32.53-32.53v-119.99Z"/>
          <path class="cls-9" d="m1677.57,2425.39h-120.01c-21.52,0-39.03-17.51-39.03-39.03v-119.99c0-2.63,1.58-5,4.01-6,2.43-1.01,5.22-.45,7.08,1.41l152.22,152.22c1.36,1.19,2.22,2.94,2.22,4.89,0,3.59-2.91,6.5-6.5,6.5Zm-146.04-143.32v104.3c0,14.35,11.67,26.03,26.03,26.03h104.3l-130.32-130.32Z"/>
        </g>
        <g>
          <path class="cls-4" d="m1278.3,2491.49c-20.22,0-36.61,16.39-36.61,36.61v153.31h.67c3.26-16.88,18.1-29.64,35.94-29.64h368.68v-160.28h-368.68Z"/>
          <path class="cls-9" d="m1242.36,2687.9h-.67c-3.59,0-6.5-2.91-6.5-6.5v-153.31c0-23.77,19.34-43.11,43.11-43.11h368.68c3.59,0,6.5,2.91,6.5,6.5v160.28c0,3.59-2.91,6.5-6.5,6.5h-368.68c-14.4,0-26.83,10.25-29.56,24.37-.59,3.06-3.27,5.27-6.38,5.27Zm35.94-189.92c-16.6,0-30.11,13.51-30.11,30.11v129.44c7.84-7.64,18.53-12.27,30.11-12.27h362.18v-147.28h-362.18Z"/>
        </g>
      </g>
      <g>
        <path class="cls-1" d="m1338.98,2608.79v-76.32c0-2.71,2.22-4.92,4.8-4.92h53.55c2.46,0,4.43,1.97,4.43,4.43s-1.97,4.43-4.43,4.43h-48.62v29.42h43.08c2.46,0,4.43,2.09,4.43,4.43,0,2.46-1.97,4.43-4.43,4.43h-43.08v30.16h49.24c2.46,0,4.43,1.97,4.43,4.43s-1.97,4.43-4.43,4.43h-54.16c-2.59,0-4.8-2.22-4.8-4.92Z"/>
        <path class="cls-1" d="m1418.75,2606.33l28.8-36.56-27.33-34.47c-.86-1.11-1.6-2.22-1.6-3.69,0-2.46,2.09-4.68,4.8-4.68,1.97,0,3.08.98,4.31,2.46l25.97,33.73,25.6-33.36c1.35-1.6,2.58-2.83,4.68-2.83,2.34,0,4.43,1.97,4.43,4.55,0,1.23-.49,2.46-1.35,3.45l-27.45,34.71,28.43,36.31c.98,1.11,1.6,2.22,1.6,3.57,0,2.59-2.09,4.8-4.8,4.8-1.97,0-3.08-.98-4.31-2.46l-27.2-35.33-26.83,34.96c-1.35,1.6-2.58,2.83-4.8,2.83s-4.31-1.97-4.31-4.55c0-1.23.49-2.46,1.35-3.45Z"/>
        <path class="cls-1" d="m1509.96,2608.79v-76.32c0-2.71,2.22-4.92,4.8-4.92h53.55c2.46,0,4.43,1.97,4.43,4.43s-1.97,4.43-4.43,4.43h-48.62v29.42h43.08c2.46,0,4.43,2.09,4.43,4.43,0,2.46-1.97,4.43-4.43,4.43h-43.08v30.16h49.24c2.46,0,4.43,1.97,4.43,4.43s-1.97,4.43-4.43,4.43h-54.16c-2.58,0-4.8-2.22-4.8-4.92Z"/>
      </g>
    </g>
    <g>
      <g>
        <g>
          <circle class="cls-7" cx="1275.21" cy="3440.32" r="34.04" transform="translate(-756.31 385.01) rotate(-13.28)"/>
          <path class="cls-9" d="m1275.21,3480.86c-22.35,0-40.54-18.19-40.54-40.54s18.19-40.54,40.54-40.54,40.54,18.19,40.54,40.54-18.19,40.54-40.54,40.54Zm0-68.08c-15.19,0-27.54,12.35-27.54,27.54s12.35,27.54,27.54,27.54,27.54-12.35,27.54-27.54-12.35-27.54-27.54-27.54Z"/>
        </g>
        <g>
          <path class="cls-1" d="m1525.04,3018.91h-165.63c-45.21,0-81.85,36.65-81.85,81.85v392.66c0,45.21,36.65,81.85,81.85,81.85h236.3c45.21,0,81.85-36.65,81.85-81.85v-322l-152.52-152.52Z"/>
          <path class="cls-9" d="m1595.7,3581.77h-236.3c-48.72,0-88.35-39.63-88.35-88.35v-392.66c0-48.72,39.63-88.35,88.35-88.35h165.63c1.72,0,3.38.68,4.6,1.9l152.52,152.52c1.22,1.22,1.9,2.87,1.9,4.6v322c0,48.72-39.63,88.35-88.35,88.35Zm-236.3-556.36c-41.55,0-75.35,33.8-75.35,75.35v392.66c0,41.55,33.8,75.35,75.35,75.35h236.3c41.55,0,75.35-33.8,75.35-75.35v-319.3l-148.71-148.71h-162.94Z"/>
        </g>
        <g>
          <path class="cls-8" d="m1525.04,3018.91l152.52,152.52h-119.99c-17.96,0-32.53-14.56-32.53-32.53v-119.99Z"/>
          <path class="cls-9" d="m1677.57,3177.93h-120.01c-21.52,0-39.03-17.51-39.03-39.03v-119.99c0-2.63,1.58-5,4.01-6s5.22-.45,7.08,1.41l152.22,152.22c1.36,1.19,2.22,2.94,2.22,4.89,0,3.59-2.91,6.5-6.5,6.5Zm-146.04-143.32v104.3c0,14.35,11.67,26.03,26.03,26.03h104.3l-130.32-130.32Z"/>
        </g>
        <g>
          <path class="cls-7" d="m1278.3,3244.03c-20.22,0-36.61,16.39-36.61,36.61v153.31h.67c3.26-16.88,18.1-29.64,35.94-29.64h368.68v-160.28h-368.68Z"/>
          <path class="cls-9" d="m1242.36,3440.45h-.67c-3.59,0-6.5-2.91-6.5-6.5v-153.31c0-23.77,19.34-43.11,43.11-43.11h368.68c3.59,0,6.5,2.91,6.5,6.5v160.28c0,3.59-2.91,6.5-6.5,6.5h-368.68c-14.4,0-26.83,10.25-29.56,24.37-.59,3.06-3.27,5.27-6.38,5.27Zm35.94-189.92c-16.6,0-30.11,13.51-30.11,30.11v129.44c7.84-7.64,18.53-12.27,30.11-12.27h362.18v-147.28h-362.18Z"/>
        </g>
      </g>
      <g>
        <path class="cls-1" d="m1336.7,3285.46c0-2.71,2.22-4.92,4.8-4.92h27.45c19.45,0,32.25,10.34,32.25,27.33v.25c0,18.59-15.51,28.19-33.85,28.19h-20.93v26.1c0,2.71-2.22,4.92-4.92,4.92s-4.8-2.22-4.8-4.92v-76.93Zm31.02,41.97c14.28,0,23.63-7.63,23.63-18.96v-.25c0-12.31-9.23-18.71-23.14-18.71h-21.79v37.91h21.3Z"/>
        <path class="cls-1" d="m1418.93,3284.84c0-2.71,2.22-4.92,4.8-4.92s4.92,2.22,4.92,4.92v33.97h49.73v-33.97c0-2.71,2.22-4.92,4.92-4.92s4.8,2.22,4.8,4.92v77.55c0,2.71-2.22,4.92-4.8,4.92s-4.92-2.22-4.92-4.92v-34.47h-49.73v34.47c0,2.71-2.22,4.92-4.92,4.92s-4.8-2.22-4.8-4.92v-77.55Z"/>
        <path class="cls-1" d="m1512.49,3285.46c0-2.71,2.22-4.92,4.8-4.92h27.45c19.45,0,32.25,10.34,32.25,27.33v.25c0,18.59-15.51,28.19-33.85,28.19h-20.93v26.1c0,2.71-2.22,4.92-4.92,4.92s-4.8-2.22-4.8-4.92v-76.93Zm31.02,41.97c14.28,0,23.63-7.63,23.63-18.96v-.25c0-12.31-9.23-18.71-23.14-18.71h-21.79v37.91h21.29Z"/>
      </g>
    </g>
    <g>
      <g>
        <g>
          <circle class="cls-3" cx="1892.54" cy="427.91" r="34.04"/>
          <path class="cls-9" d="m1892.54,468.45c-22.35,0-40.54-18.19-40.54-40.54s18.19-40.54,40.54-40.54,40.54,18.19,40.54,40.54-18.19,40.54-40.54,40.54Zm0-68.08c-15.19,0-27.54,12.35-27.54,27.54s12.35,27.54,27.54,27.54,27.54-12.35,27.54-27.54-12.35-27.54-27.54-27.54Z"/>
        </g>
        <g>
          <path class="cls-1" d="m2142.37,6.5h-165.63c-45.21,0-81.85,36.65-81.85,81.85v392.66c0,45.21,36.65,81.85,81.85,81.85h236.3c45.21,0,81.85-36.65,81.85-81.85V159.02L2142.37,6.5Z"/>
          <path class="cls-9" d="m2213.03,569.36h-236.3c-48.72,0-88.35-39.63-88.35-88.35V88.35C1888.39,39.63,1928.02,0,1976.74,0h165.63c1.72,0,3.38.68,4.6,1.9l152.51,152.52c1.22,1.22,1.9,2.87,1.9,4.6v322c0,48.72-39.63,88.35-88.35,88.35ZM1976.74,13c-41.55,0-75.35,33.8-75.35,75.35v392.66c0,41.55,33.8,75.35,75.35,75.35h236.3c41.55,0,75.35-33.8,75.35-75.35V161.71l-148.71-148.71h-162.94Z"/>
        </g>
        <g>
          <path class="cls-8" d="m2142.37,6.5l152.52,152.52h-119.99c-17.96,0-32.53-14.56-32.53-32.53V6.5Z"/>
          <path class="cls-9" d="m2294.91,165.52s-.01,0-.02,0h-119.99c-21.52,0-39.03-17.51-39.03-39.03V6.5c0-2.63,1.58-5,4.01-6.01,2.43-1.01,5.22-.45,7.08,1.41l152.22,152.22c1.36,1.19,2.22,2.94,2.22,4.89,0,3.59-2.91,6.5-6.5,6.5Zm-146.04-143.32v104.3c0,14.35,11.67,26.03,26.03,26.03h104.3l-130.32-130.32Z"/>
        </g>
        <g>
          <path class="cls-3" d="m1895.64,231.62c-20.22,0-36.61,16.39-36.61,36.61v153.31h.67c3.26-16.88,18.1-29.64,35.94-29.64h368.68v-160.28h-368.68Z"/>
          <path class="cls-9" d="m1859.7,428.03h-.67c-3.59,0-6.5-2.91-6.5-6.5v-153.31c0-23.77,19.34-43.11,43.11-43.11h368.68c3.59,0,6.5,2.91,6.5,6.5v160.28c0,3.59-2.91,6.5-6.5,6.5h-368.68c-14.4,0-26.84,10.25-29.56,24.37-.59,3.06-3.27,5.27-6.38,5.27Zm35.94-189.92c-16.6,0-30.11,13.51-30.11,30.11v129.44c7.84-7.64,18.53-12.27,30.11-12.27h362.18v-147.28h-362.18Z"/>
        </g>
      </g>
      <g>
        <path class="cls-1" d="m2003.75,273.53c0-2.71,2.21-4.92,4.8-4.92h27.45c19.45,0,32.25,10.34,32.25,27.33v.25c0,18.59-15.51,28.19-33.85,28.19h-20.93v26.1c0,2.71-2.21,4.92-4.92,4.92s-4.8-2.22-4.8-4.92v-76.93Zm31.02,41.97c14.28,0,23.63-7.63,23.63-18.96v-.25c0-12.31-9.23-18.71-23.14-18.71h-21.79v37.91h21.3Z"/>
        <path class="cls-1" d="m2082.9,344.43c-1.11-.74-1.85-2.09-1.85-3.69,0-2.71,2.09-4.8,4.68-4.8,1.23,0,2.34.49,2.95,1.11,8.12,6.89,16.25,10.22,27.2,10.22,11.57,0,19.2-6.15,19.2-14.65v-.25c0-8-4.31-12.56-22.4-16.37-19.82-4.31-28.93-10.71-28.93-24.86v-.25c0-13.54,11.94-23.51,28.31-23.51,11.32,0,19.57,2.83,27.45,8.49.98.74,2.09,2.09,2.09,3.94,0,2.59-2.09,4.68-4.68,4.68-1.11,0-1.97-.25-2.83-.86-7.26-5.29-14.28-7.51-22.28-7.51-11.2,0-18.34,6.15-18.34,13.91v.25c0,8.12,4.43,12.68,23.39,16.74,19.2,4.19,28.07,11.2,28.07,24.37v.25c0,14.77-12.31,24.37-29.42,24.37-12.56,0-23.02-3.94-32.62-11.57Z"/>
      </g>
    </g>
    <g>
      <g>
        <g>
          <circle class="cls-4" cx="1892.54" cy="1182.43" r="34.04" transform="translate(75.87 2478.42) rotate(-67.5)"/>
          <path class="cls-9" d="m1892.54,1222.98c-22.35,0-40.54-18.19-40.54-40.54s18.19-40.54,40.54-40.54,40.54,18.19,40.54,40.54-18.19,40.54-40.54,40.54Zm0-68.08c-15.19,0-27.54,12.35-27.54,27.54s12.35,27.54,27.54,27.54,27.54-12.35,27.54-27.54-12.35-27.54-27.54-27.54Z"/>
        </g>
        <g>
          <path class="cls-1" d="m2142.37,761.02h-165.63c-45.21,0-81.85,36.65-81.85,81.85v392.66c0,45.21,36.65,81.85,81.85,81.85h236.3c45.21,0,81.85-36.65,81.85-81.85v-322l-152.52-152.52Z"/>
          <path class="cls-9" d="m2213.03,1323.89h-236.3c-48.72,0-88.35-39.63-88.35-88.35v-392.66c0-48.72,39.63-88.35,88.35-88.35h165.63c1.72,0,3.38.68,4.6,1.9l152.51,152.52c1.22,1.22,1.9,2.87,1.9,4.6v322c0,48.72-39.63,88.35-88.35,88.35Zm-236.3-556.36c-41.55,0-75.35,33.8-75.35,75.35v392.66c0,41.55,33.8,75.35,75.35,75.35h236.3c41.55,0,75.35-33.8,75.35-75.35v-319.3l-148.71-148.71h-162.94Z"/>
        </g>
        <g>
          <path class="cls-8" d="m2142.37,761.02l152.52,152.52h-119.99c-17.96,0-32.53-14.56-32.53-32.53v-119.99Z"/>
          <path class="cls-9" d="m2294.91,920.04s-.01,0-.02,0h-119.99c-21.52,0-39.03-17.51-39.03-39.03v-119.99c0-2.63,1.58-5,4.01-6.01,2.43-1,5.22-.45,7.08,1.41l152.22,152.22c1.36,1.19,2.22,2.94,2.22,4.89,0,3.59-2.91,6.5-6.5,6.5Zm-146.04-143.32v104.3c0,14.35,11.67,26.03,26.03,26.03h104.3l-130.32-130.32Z"/>
        </g>
        <g>
          <path class="cls-4" d="m1895.64,986.14c-20.22,0-36.61,16.39-36.61,36.61v153.31h.67c3.26-16.88,18.1-29.64,35.94-29.64h368.68v-160.28h-368.68Z"/>
          <path class="cls-9" d="m1859.7,1182.56h-.67c-3.59,0-6.5-2.91-6.5-6.5v-153.31c0-23.77,19.34-43.11,43.11-43.11h368.68c3.59,0,6.5,2.91,6.5,6.5v160.28c0,3.59-2.91,6.5-6.5,6.5h-368.68c-14.4,0-26.84,10.25-29.56,24.37-.59,3.06-3.27,5.27-6.38,5.27Zm35.94-189.92c-16.6,0-30.11,13.51-30.11,30.11v129.44c7.84-7.64,18.53-12.27,30.11-12.27h362.18v-147.28h-362.18Z"/>
        </g>
      </g>
      <g>
        <path class="cls-1" d="m1948.42,1026.02c0-2.59,2.21-4.8,4.8-4.8h1.11c2.09,0,3.57,1.11,4.55,2.58l30.77,46.28,30.77-46.28c.98-1.6,2.58-2.58,4.55-2.58h1.11c2.58,0,4.8,2.22,4.8,4.8v77.43c0,2.71-2.22,4.92-4.8,4.92s-4.92-2.34-4.92-4.92v-64.25l-27.57,40.5c-1.11,1.6-2.34,2.46-4.06,2.46s-3.08-.86-4.18-2.46l-27.45-40.37v64.25c0,2.71-2.09,4.8-4.8,4.8s-4.68-2.09-4.68-4.8v-77.55Z"/>
        <path class="cls-1" d="m2055.27,1026.51c0-2.71,2.21-4.92,4.8-4.92h27.45c19.45,0,32.25,10.34,32.25,27.33v.25c0,18.59-15.51,28.19-33.85,28.19h-20.93v26.1c0,2.71-2.21,4.92-4.92,4.92s-4.8-2.22-4.8-4.92v-76.93Zm31.02,41.97c14.28,0,23.63-7.63,23.63-18.96v-.25c0-12.31-9.23-18.71-23.14-18.71h-21.79v37.91h21.29Z"/>
        <path class="cls-1" d="m2178.49,1087.32h-42.84c-2.83,0-4.92-1.97-4.92-4.68,0-1.72.62-3.08,1.85-4.68l44.81-54.65c1.48-1.85,2.83-2.95,5.42-2.95,2.95,0,5.17,2.22,5.17,5.05v53.79h9.72c2.21,0,4.18,1.85,4.18,4.19,0,2.22-1.97,3.94-4.18,3.94h-9.72v16.37c0,2.58-2.09,4.68-4.8,4.68s-4.68-2.09-4.68-4.68v-16.37Zm0-8.12v-44.44l-36.19,44.44h36.19Z"/>
      </g>
    </g>
    <g>
      <g>
        <g>
          <circle class="cls-3" cx="1892.54" cy="1934.98" r="34.04" transform="translate(-285.51 328.14) rotate(-9.22)"/>
          <path class="cls-9" d="m1892.54,1975.52c-22.35,0-40.54-18.19-40.54-40.54s18.19-40.54,40.54-40.54,40.54,18.19,40.54,40.54-18.19,40.54-40.54,40.54Zm0-68.08c-15.19,0-27.54,12.35-27.54,27.54s12.35,27.54,27.54,27.54,27.54-12.35,27.54-27.54-12.35-27.54-27.54-27.54Z"/>
        </g>
        <g>
          <path class="cls-1" d="m2142.37,1513.56h-165.63c-45.21,0-81.85,36.65-81.85,81.85v392.66c0,45.21,36.65,81.85,81.85,81.85h236.3c45.21,0,81.85-36.65,81.85-81.85v-322l-152.52-152.52Z"/>
          <path class="cls-9" d="m2213.03,2076.43h-236.3c-48.72,0-88.35-39.63-88.35-88.35v-392.66c0-48.72,39.63-88.35,88.35-88.35h165.63c1.72,0,3.38.68,4.6,1.9l152.51,152.52c1.22,1.22,1.9,2.87,1.9,4.6v322c0,48.72-39.63,88.35-88.35,88.35Zm-236.3-556.36c-41.55,0-75.35,33.8-75.35,75.35v392.66c0,41.55,33.8,75.35,75.35,75.35h236.3c41.55,0,75.35-33.8,75.35-75.35v-319.3l-148.71-148.71h-162.94Z"/>
        </g>
        <g>
          <path class="cls-8" d="m2142.37,1513.56l152.52,152.52h-119.99c-17.96,0-32.53-14.56-32.53-32.53v-119.99Z"/>
          <path class="cls-9" d="m2294.91,1672.58s-.01,0-.02,0h-119.99c-21.52,0-39.03-17.51-39.03-39.03v-119.99c0-2.63,1.58-5,4.01-6.01,2.43-1,5.22-.45,7.08,1.41l152.22,152.22c1.36,1.19,2.22,2.94,2.22,4.89,0,3.59-2.91,6.5-6.5,6.5Zm-146.04-143.32v104.3c0,14.35,11.67,26.03,26.03,26.03h104.3l-130.32-130.32Z"/>
        </g>
        <g>
          <path class="cls-3" d="m1895.64,1738.68c-20.22,0-36.61,16.39-36.61,36.61v153.31h.67c3.26-16.88,18.1-29.64,35.94-29.64h368.68v-160.28h-368.68Z"/>
          <path class="cls-9" d="m1859.7,1935.1h-.67c-3.59,0-6.5-2.91-6.5-6.5v-153.31c0-23.77,19.34-43.11,43.11-43.11h368.68c3.59,0,6.5,2.91,6.5,6.5v160.28c0,3.59-2.91,6.5-6.5,6.5h-368.68c-14.4,0-26.84,10.25-29.56,24.37-.59,3.06-3.27,5.27-6.38,5.27Zm35.94-189.92c-16.6,0-30.11,13.51-30.11,30.11v129.44c7.84-7.64,18.53-12.27,30.11-12.27h362.18v-147.28h-362.18Z"/>
        </g>
      </g>
      <g>
        <path class="cls-1" d="m1938.39,1779.49c0-2.71,2.21-4.92,4.8-4.92h25.11c27.08,0,45.79,18.59,45.79,42.84v.25c0,24.25-18.71,43.08-45.79,43.08h-25.11c-2.59,0-4.8-2.22-4.8-4.92v-76.32Zm29.91,72.26c21.79,0,35.7-14.77,35.7-33.85v-.25c0-19.08-13.91-34.1-35.7-34.1h-20.19v68.19h20.19Z"/>
        <path class="cls-1" d="m2030.83,1817.9v-.25c0-23.76,17.85-44.56,44.07-44.56s43.82,20.56,43.82,44.31v.25c0,23.76-17.85,44.56-44.07,44.56s-43.82-20.56-43.82-44.31Zm77.8,0v-.25c0-19.57-14.28-35.57-33.97-35.57s-33.73,15.76-33.73,35.33v.25c0,19.57,14.28,35.57,33.97,35.57s33.73-15.76,33.73-35.33Z"/>
        <path class="cls-1" d="m2135.47,1817.9v-.25c0-24.37,18.22-44.56,43.58-44.56,13.91,0,22.77,4.55,30.77,11.2.99.86,1.97,2.21,1.97,3.94,0,2.58-2.34,4.8-4.92,4.8-1.35,0-2.46-.62-3.2-1.11-6.65-5.91-14.16-9.85-24.74-9.85-19.08,0-33.36,15.51-33.36,35.33v.25c0,19.94,14.4,35.57,33.36,35.57,10.71,0,18.22-3.69,25.6-10.46.74-.74,1.85-1.35,3.08-1.35,2.46,0,4.68,2.21,4.68,4.68,0,1.48-.74,2.71-1.6,3.45-8.49,7.75-17.85,12.68-32,12.68-24.87,0-43.21-19.57-43.21-44.31Z"/>
      </g>
    </g>
    <g>
      <g>
        <g>
          <circle class="cls-2" cx="1892.54" cy="2687.78" r="34.04"/>
          <path class="cls-9" d="m1892.54,2728.32c-22.35,0-40.54-18.19-40.54-40.54s18.19-40.54,40.54-40.54,40.54,18.19,40.54,40.54-18.19,40.54-40.54,40.54Zm0-68.08c-15.19,0-27.54,12.35-27.54,27.54s12.35,27.54,27.54,27.54,27.54-12.35,27.54-27.54-12.35-27.54-27.54-27.54Z"/>
        </g>
        <g>
          <path class="cls-1" d="m2142.37,2266.37h-165.63c-45.21,0-81.85,36.65-81.85,81.85v392.66c0,45.21,36.65,81.85,81.85,81.85h236.3c45.21,0,81.85-36.65,81.85-81.85v-322l-152.52-152.52Z"/>
          <path class="cls-9" d="m2213.03,2829.23h-236.3c-48.72,0-88.35-39.63-88.35-88.35v-392.66c0-48.72,39.63-88.35,88.35-88.35h165.63c1.72,0,3.38.68,4.6,1.9l152.51,152.52c1.22,1.22,1.9,2.87,1.9,4.6v322c0,48.72-39.63,88.35-88.35,88.35Zm-236.3-556.36c-41.55,0-75.35,33.8-75.35,75.35v392.66c0,41.55,33.8,75.35,75.35,75.35h236.3c41.55,0,75.35-33.8,75.35-75.35v-319.3l-148.71-148.71h-162.94Z"/>
        </g>
        <g>
          <path class="cls-8" d="m2142.37,2266.37l152.52,152.52h-119.99c-17.96,0-32.53-14.56-32.53-32.53v-119.99Z"/>
          <path class="cls-9" d="m2294.91,2425.39s-.01,0-.02,0h-119.99c-21.52,0-39.03-17.51-39.03-39.03v-119.99c0-2.63,1.58-5,4.01-6,2.43-1,5.22-.45,7.08,1.41l152.22,152.22c1.36,1.19,2.22,2.94,2.22,4.89,0,3.59-2.91,6.5-6.5,6.5Zm-146.04-143.32v104.3c0,14.35,11.67,26.03,26.03,26.03h104.3l-130.32-130.32Z"/>
        </g>
        <g>
          <path class="cls-2" d="m1895.64,2491.49c-20.22,0-36.61,16.39-36.61,36.61v153.31h.67c3.26-16.88,18.1-29.64,35.94-29.64h368.68v-160.28h-368.68Z"/>
          <path class="cls-9" d="m1859.7,2687.9h-.67c-3.59,0-6.5-2.91-6.5-6.5v-153.31c0-23.77,19.34-43.11,43.11-43.11h368.68c3.59,0,6.5,2.91,6.5,6.5v160.28c0,3.59-2.91,6.5-6.5,6.5h-368.68c-14.4,0-26.84,10.25-29.56,24.37-.59,3.06-3.27,5.27-6.38,5.27Zm35.94-189.92c-16.6,0-30.11,13.51-30.11,30.11v129.44c7.84-7.64,18.53-12.27,30.11-12.27h362.18v-147.28h-362.18Z"/>
        </g>
      </g>
      <g>
        <path class="cls-1" d="m1934.45,2532.48c0-2.71,2.21-4.92,4.8-4.92h25.11c27.08,0,45.79,18.59,45.79,42.84v.25c0,24.25-18.71,43.08-45.79,43.08h-25.11c-2.58,0-4.8-2.22-4.8-4.92v-76.32Zm29.91,72.26c21.79,0,35.7-14.77,35.7-33.85v-.25c0-19.08-13.91-34.1-35.7-34.1h-20.19v68.19h20.19Z"/>
        <path class="cls-1" d="m2030.71,2531.98c0-2.58,2.21-4.8,4.8-4.8h1.11c2.09,0,3.57,1.11,4.55,2.58l30.77,46.28,30.77-46.28c.98-1.6,2.58-2.58,4.55-2.58h1.11c2.59,0,4.8,2.22,4.8,4.8v77.42c0,2.71-2.22,4.92-4.8,4.92s-4.92-2.34-4.92-4.92v-64.25l-27.57,40.5c-1.11,1.6-2.34,2.46-4.06,2.46s-3.08-.86-4.18-2.46l-27.45-40.37v64.25c0,2.71-2.09,4.8-4.8,4.8s-4.68-2.09-4.68-4.8v-77.55Z"/>
        <path class="cls-1" d="m2133.74,2570.88v-.25c0-23.63,17.36-44.56,43.21-44.56,13.05,0,21.54,3.45,29.42,9.23,1.11.86,1.97,2.22,1.97,3.94,0,2.71-2.22,4.92-4.8,4.92-1.11,0-2.09-.49-3.08-1.23-6.16-4.68-13.05-7.88-23.88-7.88-19.08,0-32.74,16.12-32.74,35.33v.25c0,20.56,13.17,35.82,34.1,35.82,9.85,0,18.96-3.82,24.86-8.62v-21.42h-23.14c-2.34,0-4.31-1.97-4.31-4.31,0-2.46,1.97-4.43,4.31-4.43h27.7c2.58,0,4.8,2.22,4.8,4.92v26.22c0,2.34-1.11,4.43-3.32,5.91-7.88,5.79-18.46,10.46-31.27,10.46-27.08,0-43.82-19.7-43.82-44.31Z"/>
      </g>
    </g>
    <g>
      <g>
        <g>
          <circle class="cls-5" cx="1892.54" cy="3440.32" r="34.04" transform="translate(-526.64 347.57) rotate(-9.22)"/>
          <path class="cls-9" d="m1892.54,3480.86c-22.35,0-40.54-18.19-40.54-40.54s18.19-40.54,40.54-40.54,40.54,18.19,40.54,40.54-18.19,40.54-40.54,40.54Zm0-68.08c-15.19,0-27.54,12.35-27.54,27.54s12.35,27.54,27.54,27.54,27.54-12.35,27.54-27.54-12.35-27.54-27.54-27.54Z"/>
        </g>
        <g>
          <path class="cls-1" d="m2142.37,3018.91h-165.63c-45.21,0-81.85,36.65-81.85,81.85v392.66c0,45.21,36.65,81.85,81.85,81.85h236.3c45.21,0,81.85-36.65,81.85-81.85v-322l-152.52-152.52Z"/>
          <path class="cls-9" d="m2213.03,3581.77h-236.3c-48.72,0-88.35-39.63-88.35-88.35v-392.66c0-48.72,39.63-88.35,88.35-88.35h165.63c1.72,0,3.38.68,4.6,1.9l152.51,152.52c1.22,1.22,1.9,2.87,1.9,4.6v322c0,48.72-39.63,88.35-88.35,88.35Zm-236.3-556.36c-41.55,0-75.35,33.8-75.35,75.35v392.66c0,41.55,33.8,75.35,75.35,75.35h236.3c41.55,0,75.35-33.8,75.35-75.35v-319.3l-148.71-148.71h-162.94Z"/>
        </g>
        <g>
          <path class="cls-8" d="m2142.37,3018.91l152.52,152.52h-119.99c-17.96,0-32.53-14.56-32.53-32.53v-119.99Z"/>
          <path class="cls-9" d="m2294.91,3177.93s-.01,0-.02,0h-119.99c-21.52,0-39.03-17.51-39.03-39.03v-119.99c0-2.63,1.58-5,4.01-6,2.43-1,5.22-.45,7.08,1.41l152.22,152.22c1.36,1.19,2.22,2.94,2.22,4.89,0,3.59-2.91,6.5-6.5,6.5Zm-146.04-143.32v104.3c0,14.35,11.67,26.03,26.03,26.03h104.3l-130.32-130.32Z"/>
        </g>
        <g>
          <path class="cls-5" d="m1895.64,3244.03c-20.22,0-36.61,16.39-36.61,36.61v153.31h.67c3.26-16.88,18.1-29.64,35.94-29.64h368.68v-160.28h-368.68Z"/>
          <path class="cls-9" d="m1859.7,3440.45h-.67c-3.59,0-6.5-2.91-6.5-6.5v-153.31c0-23.77,19.34-43.11,43.11-43.11h368.68c3.59,0,6.5,2.91,6.5,6.5v160.28c0,3.59-2.91,6.5-6.5,6.5h-368.68c-14.4,0-26.84,10.25-29.56,24.37-.59,3.06-3.27,5.27-6.38,5.27Zm35.94-189.92c-16.6,0-30.11,13.51-30.11,30.11v129.44c7.84-7.64,18.53-12.27,30.11-12.27h362.18v-147.28h-362.18Z"/>
        </g>
      </g>
      <g>
        <path class="cls-1" d="m1959.81,3359.31l28.8-36.56-27.33-34.47c-.86-1.11-1.6-2.22-1.6-3.69,0-2.46,2.09-4.68,4.8-4.68,1.97,0,3.08.98,4.31,2.46l25.97,33.73,25.6-33.36c1.35-1.6,2.58-2.83,4.68-2.83,2.34,0,4.43,1.97,4.43,4.55,0,1.23-.49,2.46-1.35,3.45l-27.45,34.71,28.43,36.31c.98,1.11,1.6,2.22,1.6,3.57,0,2.59-2.09,4.8-4.8,4.8-1.97,0-3.08-.98-4.31-2.46l-27.2-35.33-26.83,34.96c-1.35,1.6-2.59,2.83-4.8,2.83s-4.31-1.97-4.31-4.55c0-1.23.49-2.46,1.35-3.45Z"/>
        <path class="cls-1" d="m2051.02,3284.84c0-2.71,2.21-4.92,4.8-4.92s4.92,2.22,4.92,4.92v72.87h44.68c2.46,0,4.43,2.09,4.43,4.55s-1.97,4.43-4.43,4.43h-49.61c-2.58,0-4.8-2.22-4.8-4.92v-76.93Z"/>
        <path class="cls-1" d="m2124.14,3356.36c-1.11-.74-1.85-2.09-1.85-3.69,0-2.71,2.09-4.8,4.68-4.8,1.23,0,2.34.49,2.95,1.11,8.12,6.89,16.25,10.22,27.2,10.22,11.57,0,19.2-6.15,19.2-14.65v-.25c0-8-4.31-12.55-22.4-16.37-19.82-4.31-28.93-10.71-28.93-24.86v-.25c0-13.54,11.94-23.51,28.31-23.51,11.32,0,19.57,2.83,27.45,8.49.98.74,2.09,2.09,2.09,3.94,0,2.58-2.09,4.68-4.68,4.68-1.11,0-1.97-.25-2.83-.86-7.26-5.29-14.28-7.51-22.28-7.51-11.2,0-18.34,6.15-18.34,13.91v.25c0,8.12,4.43,12.68,23.39,16.74,19.2,4.18,28.07,11.2,28.07,24.37v.25c0,14.77-12.31,24.37-29.42,24.37-12.56,0-23.02-3.94-32.62-11.57Z"/>
      </g>
    </g>
    <g>
      <g>
        <g>
          <circle class="cls-5" cx="2509.87" cy="427.91" r="34.04"/>
          <path class="cls-9" d="m2509.87,468.45c-22.35,0-40.54-18.19-40.54-40.54s18.19-40.54,40.54-40.54,40.54,18.19,40.54,40.54-18.19,40.54-40.54,40.54Zm0-68.08c-15.19,0-27.54,12.35-27.54,27.54s12.35,27.54,27.54,27.54,27.54-12.35,27.54-27.54-12.35-27.54-27.54-27.54Z"/>
        </g>
        <g>
          <path class="cls-1" d="m2759.7,6.5h-165.63c-45.21,0-81.85,36.65-81.85,81.85v392.66c0,45.21,36.65,81.85,81.85,81.85h236.3c45.21,0,81.85-36.65,81.85-81.85V159.02L2759.7,6.5Z"/>
          <path class="cls-9" d="m2830.37,569.36h-236.3c-48.72,0-88.35-39.63-88.35-88.35V88.35C2505.72,39.63,2545.35,0,2594.07,0h165.63c1.72,0,3.38.68,4.6,1.9l152.51,152.52c1.22,1.22,1.9,2.87,1.9,4.6v322c0,48.72-39.63,88.35-88.35,88.35ZM2594.07,13c-41.55,0-75.35,33.8-75.35,75.35v392.66c0,41.55,33.8,75.35,75.35,75.35h236.3c41.55,0,75.35-33.8,75.35-75.35V161.71l-148.71-148.71h-162.94Z"/>
        </g>
        <g>
          <path class="cls-8" d="m2759.7,6.5l152.52,152.52h-119.99c-17.96,0-32.53-14.56-32.53-32.53V6.5Z"/>
          <path class="cls-9" d="m2912.24,165.52s-.01,0-.02,0h-119.99c-21.52,0-39.03-17.51-39.03-39.03V6.5c0-2.63,1.58-5,4.01-6.01,2.43-1.01,5.22-.45,7.08,1.41l152.22,152.22c1.36,1.19,2.22,2.94,2.22,4.89,0,3.59-2.91,6.5-6.5,6.5Zm-146.04-143.32v104.3c0,14.35,11.67,26.03,26.03,26.03h104.3l-130.32-130.32Z"/>
        </g>
        <g>
          <path class="cls-5" d="m2512.97,231.62c-20.22,0-36.61,16.39-36.61,36.61v153.31h.67c3.26-16.88,18.1-29.64,35.94-29.64h368.68v-160.28h-368.68Z"/>
          <path class="cls-9" d="m2477.03,428.03h-.67c-3.59,0-6.5-2.91-6.5-6.5v-153.31c0-23.77,19.34-43.11,43.11-43.11h368.68c3.59,0,6.5,2.91,6.5,6.5v160.28c0,3.59-2.91,6.5-6.5,6.5h-368.68c-14.4,0-26.83,10.25-29.56,24.37-.59,3.06-3.27,5.27-6.38,5.27Zm35.94-189.92c-16.6,0-30.11,13.51-30.11,30.11v129.44c7.84-7.64,18.53-12.27,30.11-12.27h362.18v-147.28h-362.18Z"/>
        </g>
      </g>
      <g>
        <path class="cls-1" d="m2601.56,277.59h-24.99c-2.46,0-4.55-1.97-4.55-4.43s2.09-4.55,4.55-4.55h59.82c2.46,0,4.55,2.09,4.55,4.55s-2.09,4.43-4.55,4.43h-24.99v72.87c0,2.71-2.22,4.92-4.92,4.92s-4.92-2.22-4.92-4.92v-72.87Z"/>
        <path class="cls-1" d="m2655.84,347.39l28.8-36.56-27.33-34.47c-.86-1.11-1.6-2.22-1.6-3.69,0-2.46,2.09-4.68,4.8-4.68,1.97,0,3.08.98,4.31,2.46l25.97,33.73,25.6-33.36c1.35-1.6,2.58-2.83,4.68-2.83,2.34,0,4.43,1.97,4.43,4.55,0,1.23-.49,2.46-1.35,3.45l-27.45,34.71,28.43,36.31c.98,1.11,1.6,2.22,1.6,3.57,0,2.59-2.09,4.8-4.8,4.8-1.97,0-3.08-.98-4.31-2.46l-27.2-35.33-26.83,34.96c-1.35,1.6-2.58,2.83-4.8,2.83s-4.31-1.97-4.31-4.55c0-1.23.49-2.46,1.35-3.45Z"/>
        <path class="cls-1" d="m2769.83,277.59h-24.99c-2.46,0-4.55-1.97-4.55-4.43s2.09-4.55,4.55-4.55h59.82c2.46,0,4.55,2.09,4.55,4.55s-2.09,4.43-4.55,4.43h-24.99v72.87c0,2.71-2.22,4.92-4.92,4.92s-4.92-2.22-4.92-4.92v-72.87Z"/>
      </g>
    </g>
    <g>
      <g>
        <g>
          <circle class="cls-7" cx="2509.87" cy="1182.43" r="34.04" transform="translate(-204.53 608.28) rotate(-13.28)"/>
          <path class="cls-9" d="m2509.87,1222.98c-22.35,0-40.54-18.19-40.54-40.54s18.19-40.54,40.54-40.54,40.54,18.19,40.54,40.54-18.19,40.54-40.54,40.54Zm0-68.08c-15.19,0-27.54,12.35-27.54,27.54s12.35,27.54,27.54,27.54,27.54-12.35,27.54-27.54-12.35-27.54-27.54-27.54Z"/>
        </g>
        <g>
          <path class="cls-1" d="m2759.7,761.02h-165.63c-45.21,0-81.85,36.65-81.85,81.85v392.66c0,45.21,36.65,81.85,81.85,81.85h236.3c45.21,0,81.85-36.65,81.85-81.85v-322l-152.52-152.52Z"/>
          <path class="cls-9" d="m2830.37,1323.89h-236.3c-48.72,0-88.35-39.63-88.35-88.35v-392.66c0-48.72,39.63-88.35,88.35-88.35h165.63c1.72,0,3.38.68,4.6,1.9l152.51,152.52c1.22,1.22,1.9,2.87,1.9,4.6v322c0,48.72-39.63,88.35-88.35,88.35Zm-236.3-556.36c-41.55,0-75.35,33.8-75.35,75.35v392.66c0,41.55,33.8,75.35,75.35,75.35h236.3c41.55,0,75.35-33.8,75.35-75.35v-319.3l-148.71-148.71h-162.94Z"/>
        </g>
        <g>
          <path class="cls-8" d="m2759.7,761.02l152.52,152.52h-119.99c-17.96,0-32.53-14.56-32.53-32.53v-119.99Z"/>
          <path class="cls-9" d="m2912.24,920.04s-.01,0-.02,0h-119.99c-21.52,0-39.03-17.51-39.03-39.03v-119.99c0-2.63,1.58-5,4.01-6.01,2.43-1,5.22-.45,7.08,1.41l152.22,152.22c1.36,1.19,2.22,2.94,2.22,4.89,0,3.59-2.91,6.5-6.5,6.5Zm-146.04-143.32v104.3c0,14.35,11.67,26.03,26.03,26.03h104.3l-130.32-130.32Z"/>
        </g>
        <g>
          <path class="cls-7" d="m2512.97,986.14c-20.22,0-36.61,16.39-36.61,36.61v153.31h.67c3.26-16.88,18.1-29.64,35.94-29.64h368.68v-160.28h-368.68Z"/>
          <path class="cls-9" d="m2477.03,1182.56h-.67c-3.59,0-6.5-2.91-6.5-6.5v-153.31c0-23.77,19.34-43.11,43.11-43.11h368.68c3.59,0,6.5,2.91,6.5,6.5v160.28c0,3.59-2.91,6.5-6.5,6.5h-368.68c-14.4,0-26.83,10.25-29.56,24.37-.59,3.06-3.27,5.27-6.38,5.27Zm35.94-189.92c-16.6,0-30.11,13.51-30.11,30.11v129.44c7.84-7.64,18.53-12.27,30.11-12.27h362.18v-147.28h-362.18Z"/>
        </g>
      </g>
      <g>
        <path class="cls-1" d="m2542.53,1026.51c0-2.71,2.21-4.92,4.8-4.92h25.11c27.08,0,45.79,18.59,45.79,42.84v.25c0,24.25-18.71,43.08-45.79,43.08h-25.11c-2.58,0-4.8-2.22-4.8-4.92v-76.32Zm29.91,72.26c21.79,0,35.7-14.77,35.7-33.85v-.25c0-19.08-13.91-34.1-35.7-34.1h-20.19v68.19h20.19Z"/>
        <path class="cls-1" d="m2629.69,1028.11c-.25-.74-.49-1.48-.49-2.22,0-2.59,2.34-4.92,5.05-4.92,2.46,0,4.31,1.85,5.05,4.06l23.76,68.44,22.53-68.69c.74-2.22,2.22-3.82,4.8-3.82h.62c2.46,0,4.06,1.6,4.8,3.82l22.53,68.69,23.88-68.69c.74-2.22,2.34-3.82,4.68-3.82,2.58,0,4.92,2.34,4.92,4.8,0,.74-.37,1.6-.62,2.34l-27.57,76.56c-.86,2.46-2.58,4.19-5.05,4.19h-.74c-2.46,0-4.18-1.72-5.05-4.19l-22.4-66.22-22.28,66.22c-.86,2.46-2.59,4.19-5.05,4.19h-.74c-2.46,0-4.18-1.6-5.05-4.19l-27.57-76.56Z"/>
        <path class="cls-1" d="m2762.76,1064.92v-.25c0-23.63,17.36-44.56,43.21-44.56,13.05,0,21.54,3.45,29.42,9.23,1.11.86,1.97,2.22,1.97,3.94,0,2.71-2.22,4.92-4.8,4.92-1.11,0-2.09-.49-3.08-1.23-6.16-4.68-13.05-7.88-23.88-7.88-19.08,0-32.74,16.12-32.74,35.33v.25c0,20.56,13.17,35.82,34.1,35.82,9.85,0,18.96-3.82,24.86-8.62v-21.42h-23.14c-2.34,0-4.31-1.97-4.31-4.31,0-2.46,1.97-4.43,4.31-4.43h27.7c2.58,0,4.8,2.22,4.8,4.92v26.22c0,2.34-1.11,4.43-3.32,5.91-7.88,5.79-18.46,10.46-31.27,10.46-27.08,0-43.82-19.69-43.82-44.31Z"/>
      </g>
    </g>
    <g>
      <g>
        <g>
          <circle class="cls-5" cx="2509.87" cy="1934.98" r="34.04" transform="translate(-633.11 2341.49) rotate(-45)"/>
          <path class="cls-9" d="m2509.87,1975.52c-22.35,0-40.54-18.19-40.54-40.54s18.19-40.54,40.54-40.54,40.54,18.19,40.54,40.54-18.19,40.54-40.54,40.54Zm0-68.08c-15.19,0-27.54,12.35-27.54,27.54s12.35,27.54,27.54,27.54,27.54-12.35,27.54-27.54-12.35-27.54-27.54-27.54Z"/>
        </g>
        <g>
          <path class="cls-1" d="m2759.7,1513.56h-165.63c-45.21,0-81.85,36.65-81.85,81.85v392.66c0,45.21,36.65,81.85,81.85,81.85h236.3c45.21,0,81.85-36.65,81.85-81.85v-322l-152.52-152.52Z"/>
          <path class="cls-9" d="m2830.37,2076.43h-236.3c-48.72,0-88.35-39.63-88.35-88.35v-392.66c0-48.72,39.63-88.35,88.35-88.35h165.63c1.72,0,3.38.68,4.6,1.9l152.51,152.52c1.22,1.22,1.9,2.87,1.9,4.6v322c0,48.72-39.63,88.35-88.35,88.35Zm-236.3-556.36c-41.55,0-75.35,33.8-75.35,75.35v392.66c0,41.55,33.8,75.35,75.35,75.35h236.3c41.55,0,75.35-33.8,75.35-75.35v-319.3l-148.71-148.71h-162.94Z"/>
        </g>
        <g>
          <path class="cls-8" d="m2759.7,1513.56l152.52,152.52h-119.99c-17.96,0-32.53-14.56-32.53-32.53v-119.99Z"/>
          <path class="cls-9" d="m2912.24,1672.58s-.01,0-.02,0h-119.99c-21.52,0-39.03-17.51-39.03-39.03v-119.99c0-2.63,1.58-5,4.01-6.01,2.43-1,5.22-.45,7.08,1.41l152.22,152.22c1.36,1.19,2.22,2.94,2.22,4.89,0,3.59-2.91,6.5-6.5,6.5Zm-146.04-143.32v104.3c0,14.35,11.67,26.03,26.03,26.03h104.3l-130.32-130.32Z"/>
        </g>
        <g>
          <path class="cls-5" d="m2512.97,1738.68c-20.22,0-36.61,16.39-36.61,36.61v153.31h.67c3.26-16.88,18.1-29.64,35.94-29.64h368.68v-160.28h-368.68Z"/>
          <path class="cls-9" d="m2477.03,1935.1h-.67c-3.59,0-6.5-2.91-6.5-6.5v-153.31c0-23.77,19.34-43.11,43.11-43.11h368.68c3.59,0,6.5,2.91,6.5,6.5v160.28c0,3.59-2.91,6.5-6.5,6.5h-368.68c-14.4,0-26.83,10.25-29.56,24.37-.59,3.06-3.27,5.27-6.38,5.27Zm35.94-189.92c-16.6,0-30.11,13.51-30.11,30.11v129.44c7.84-7.64,18.53-12.27,30.11-12.27h362.18v-147.28h-362.18Z"/>
        </g>
      </g>
      <g>
        <path class="cls-1" d="m2560.01,1779c0-2.58,2.21-4.8,4.8-4.8h1.11c2.09,0,3.57,1.11,4.55,2.58l30.77,46.28,30.77-46.28c.98-1.6,2.58-2.58,4.55-2.58h1.11c2.58,0,4.8,2.22,4.8,4.8v77.42c0,2.71-2.22,4.92-4.8,4.92s-4.92-2.34-4.92-4.92v-64.25l-27.57,40.5c-1.11,1.6-2.34,2.46-4.06,2.46s-3.08-.86-4.18-2.46l-27.45-40.37v64.25c0,2.71-2.09,4.8-4.8,4.8s-4.68-2.09-4.68-4.8v-77.55Z"/>
        <path class="cls-1" d="m2666.86,1779.49c0-2.71,2.21-4.92,4.8-4.92h27.45c19.45,0,32.25,10.34,32.25,27.33v.25c0,18.59-15.51,28.19-33.85,28.19h-20.93v26.1c0,2.71-2.21,4.92-4.92,4.92s-4.8-2.22-4.8-4.92v-76.93Zm31.02,41.97c14.28,0,23.63-7.63,23.63-18.96v-.25c0-12.31-9.23-18.71-23.14-18.71h-21.79v37.91h21.29Z"/>
        <path class="cls-1" d="m2745.28,1817.9v-.25c0-23.63,17.36-44.56,43.21-44.56,13.05,0,21.54,3.45,29.42,9.23,1.11.86,1.97,2.22,1.97,3.94,0,2.71-2.22,4.92-4.8,4.92-1.11,0-2.09-.49-3.08-1.23-6.16-4.68-13.05-7.88-23.88-7.88-19.08,0-32.74,16.12-32.74,35.33v.25c0,20.56,13.17,35.82,34.1,35.82,9.85,0,18.96-3.82,24.86-8.62v-21.42h-23.14c-2.34,0-4.31-1.97-4.31-4.31,0-2.46,1.97-4.43,4.31-4.43h27.7c2.58,0,4.8,2.22,4.8,4.92v26.22c0,2.34-1.11,4.43-3.32,5.91-7.88,5.79-18.46,10.46-31.27,10.46-27.08,0-43.82-19.7-43.82-44.31Z"/>
      </g>
    </g>
    <g>
      <g>
        <g>
          <circle class="cls-6" cx="2509.87" cy="2687.78" r="34.04"/>
          <path class="cls-9" d="m2509.87,2728.32c-22.35,0-40.54-18.19-40.54-40.54s18.19-40.54,40.54-40.54,40.54,18.19,40.54,40.54-18.19,40.54-40.54,40.54Zm0-68.08c-15.19,0-27.54,12.35-27.54,27.54s12.35,27.54,27.54,27.54,27.54-12.35,27.54-27.54-12.35-27.54-27.54-27.54Z"/>
        </g>
        <g>
          <path class="cls-1" d="m2759.7,2266.37h-165.63c-45.21,0-81.85,36.65-81.85,81.85v392.66c0,45.21,36.65,81.85,81.85,81.85h236.3c45.21,0,81.85-36.65,81.85-81.85v-322l-152.52-152.52Z"/>
          <path class="cls-9" d="m2830.37,2829.23h-236.3c-48.72,0-88.35-39.63-88.35-88.35v-392.66c0-48.72,39.63-88.35,88.35-88.35h165.63c1.72,0,3.38.68,4.6,1.9l152.51,152.52c1.22,1.22,1.9,2.87,1.9,4.6v322c0,48.72-39.63,88.35-88.35,88.35Zm-236.3-556.36c-41.55,0-75.35,33.8-75.35,75.35v392.66c0,41.55,33.8,75.35,75.35,75.35h236.3c41.55,0,75.35-33.8,75.35-75.35v-319.3l-148.71-148.71h-162.94Z"/>
        </g>
        <g>
          <path class="cls-8" d="m2759.7,2266.37l152.52,152.52h-119.99c-17.96,0-32.53-14.56-32.53-32.53v-119.99Z"/>
          <path class="cls-9" d="m2912.24,2425.39s-.01,0-.02,0h-119.99c-21.52,0-39.03-17.51-39.03-39.03v-119.99c0-2.63,1.58-5,4.01-6,2.43-1,5.22-.45,7.08,1.41l152.22,152.22c1.36,1.19,2.22,2.94,2.22,4.89,0,3.59-2.91,6.5-6.5,6.5Zm-146.04-143.32v104.3c0,14.35,11.67,26.03,26.03,26.03h104.3l-130.32-130.32Z"/>
        </g>
        <g>
          <path class="cls-6" d="m2512.97,2491.49c-20.22,0-36.61,16.39-36.61,36.61v153.31h.67c3.26-16.88,18.1-29.64,35.94-29.64h368.68v-160.28h-368.68Z"/>
          <path class="cls-9" d="m2477.03,2687.9h-.67c-3.59,0-6.5-2.91-6.5-6.5v-153.31c0-23.77,19.34-43.11,43.11-43.11h368.68c3.59,0,6.5,2.91,6.5,6.5v160.28c0,3.59-2.91,6.5-6.5,6.5h-368.68c-14.4,0-26.83,10.25-29.56,24.37-.59,3.06-3.27,5.27-6.38,5.27Zm35.94-189.92c-16.6,0-30.11,13.51-30.11,30.11v129.44c7.84-7.64,18.53-12.27,30.11-12.27h362.18v-147.28h-362.18Z"/>
        </g>
      </g>
      <g>
        <path class="cls-1" d="m2581.06,2608.79v-76.32c0-2.71,2.21-4.92,4.8-4.92h53.55c2.46,0,4.43,1.97,4.43,4.43s-1.97,4.43-4.43,4.43h-48.62v29.42h43.08c2.46,0,4.43,2.09,4.43,4.43,0,2.46-1.97,4.43-4.43,4.43h-43.08v30.16h49.24c2.46,0,4.43,1.97,4.43,4.43s-1.97,4.43-4.43,4.43h-54.16c-2.58,0-4.8-2.22-4.8-4.92Z"/>
        <path class="cls-1" d="m2663.54,2532.48c0-2.71,2.21-4.92,4.8-4.92h27.45c19.45,0,32.25,10.34,32.25,27.33v.25c0,18.59-15.51,28.19-33.85,28.19h-20.93v26.1c0,2.71-2.21,4.92-4.92,4.92s-4.8-2.22-4.8-4.92v-76.93Zm31.02,41.97c14.28,0,23.63-7.63,23.63-18.96v-.25c0-12.31-9.23-18.71-23.14-18.71h-21.79v37.91h21.29Z"/>
        <path class="cls-1" d="m2742.69,2603.38c-1.11-.74-1.85-2.09-1.85-3.69,0-2.71,2.09-4.8,4.68-4.8,1.23,0,2.34.49,2.95,1.11,8.12,6.89,16.25,10.22,27.2,10.22,11.57,0,19.2-6.15,19.2-14.65v-.25c0-8-4.31-12.55-22.4-16.37-19.82-4.31-28.93-10.71-28.93-24.86v-.25c0-13.54,11.94-23.51,28.31-23.51,11.32,0,19.57,2.83,27.45,8.49.98.74,2.09,2.09,2.09,3.94,0,2.58-2.09,4.68-4.68,4.68-1.11,0-1.97-.25-2.83-.86-7.26-5.29-14.28-7.51-22.28-7.51-11.2,0-18.34,6.15-18.34,13.91v.25c0,8.12,4.43,12.68,23.39,16.74,19.2,4.18,28.07,11.2,28.07,24.37v.25c0,14.77-12.31,24.37-29.42,24.37-12.56,0-23.02-3.94-32.62-11.57Z"/>
      </g>
    </g>
    <g>
      <g>
        <g>
          <circle class="cls-4" cx="2509.87" cy="3440.32" r="34.04" transform="translate(-1697.55 2782.4) rotate(-45)"/>
          <path class="cls-9" d="m2509.87,3480.86c-22.35,0-40.54-18.19-40.54-40.54s18.19-40.54,40.54-40.54,40.54,18.19,40.54,40.54-18.19,40.54-40.54,40.54Zm0-68.08c-15.19,0-27.54,12.35-27.54,27.54s12.35,27.54,27.54,27.54,27.54-12.35,27.54-27.54-12.35-27.54-27.54-27.54Z"/>
        </g>
        <g>
          <path class="cls-1" d="m2759.7,3018.91h-165.63c-45.21,0-81.85,36.65-81.85,81.85v392.66c0,45.21,36.65,81.85,81.85,81.85h236.3c45.21,0,81.85-36.65,81.85-81.85v-322l-152.52-152.52Z"/>
          <path class="cls-9" d="m2830.37,3581.77h-236.3c-48.72,0-88.35-39.63-88.35-88.35v-392.66c0-48.72,39.63-88.35,88.35-88.35h165.63c1.72,0,3.38.68,4.6,1.9l152.51,152.52c1.22,1.22,1.9,2.87,1.9,4.6v322c0,48.72-39.63,88.35-88.35,88.35Zm-236.3-556.36c-41.55,0-75.35,33.8-75.35,75.35v392.66c0,41.55,33.8,75.35,75.35,75.35h236.3c41.55,0,75.35-33.8,75.35-75.35v-319.3l-148.71-148.71h-162.94Z"/>
        </g>
        <g>
          <path class="cls-8" d="m2759.7,3018.91l152.52,152.52h-119.99c-17.96,0-32.53-14.56-32.53-32.53v-119.99Z"/>
          <path class="cls-9" d="m2912.24,3177.93s-.01,0-.02,0h-119.99c-21.52,0-39.03-17.51-39.03-39.03v-119.99c0-2.63,1.58-5,4.01-6,2.43-1,5.22-.45,7.08,1.41l152.22,152.22c1.36,1.19,2.22,2.94,2.22,4.89,0,3.59-2.91,6.5-6.5,6.5Zm-146.04-143.32v104.3c0,14.35,11.67,26.03,26.03,26.03h104.3l-130.32-130.32Z"/>
        </g>
        <g>
          <path class="cls-4" d="m2512.97,3244.03c-20.22,0-36.61,16.39-36.61,36.61v153.31h.67c3.26-16.88,18.1-29.64,35.94-29.64h368.68v-160.28h-368.68Z"/>
          <path class="cls-9" d="m2477.03,3440.45h-.67c-3.59,0-6.5-2.91-6.5-6.5v-153.31c0-23.77,19.34-43.11,43.11-43.11h368.68c3.59,0,6.5,2.91,6.5,6.5v160.28c0,3.59-2.91,6.5-6.5,6.5h-368.68c-14.4,0-26.83,10.25-29.56,24.37-.59,3.06-3.27,5.27-6.38,5.27Zm35.94-189.92c-16.6,0-30.11,13.51-30.11,30.11v129.44c7.84-7.64,18.53-12.27,30.11-12.27h362.18v-147.28h-362.18Z"/>
        </g>
      </g>
      <g>
        <path class="cls-1" d="m2578.48,3285.46c0-2.71,2.21-4.92,4.8-4.92h32.25c10.59,0,19.08,3.2,24.5,8.62,4.19,4.19,6.65,10.22,6.65,16.99v.25c0,14.16-9.6,22.4-23.02,24.99l21.42,27.57c.98,1.11,1.6,2.22,1.6,3.57,0,2.59-2.46,4.8-4.92,4.8-1.97,0-3.45-1.11-4.55-2.58l-24.25-31.51h-24.74v29.17c0,2.71-2.21,4.92-4.92,4.92s-4.8-2.22-4.8-4.92v-76.93Zm36.19,39.02c12.92,0,22.16-6.65,22.16-17.73v-.25c0-10.59-8.12-16.99-22.03-16.99h-26.59v34.96h26.46Z"/>
        <path class="cls-1" d="m2689.39,3289.52h-24.99c-2.46,0-4.55-1.97-4.55-4.43s2.09-4.55,4.55-4.55h59.82c2.46,0,4.55,2.09,4.55,4.55s-2.09,4.43-4.55,4.43h-24.99v72.87c0,2.71-2.22,4.92-4.92,4.92s-4.92-2.22-4.92-4.92v-72.87Z"/>
        <path class="cls-1" d="m2746.38,3285.46c0-2.71,2.21-4.92,4.8-4.92h53.3c2.46,0,4.43,1.97,4.43,4.43s-1.97,4.55-4.43,4.55h-48.38v30.77h42.84c2.46,0,4.43,1.97,4.43,4.43s-1.97,4.43-4.43,4.43h-42.84v33.23c0,2.71-2.22,4.92-4.92,4.92s-4.8-2.22-4.8-4.92v-76.93Z"/>
      </g>
    </g>
    <g>
      <g>
        <g>
          <circle class="cls-6" cx="3127.21" cy="427.91" r="34.04"/>
          <path class="cls-9" d="m3127.21,468.45c-22.35,0-40.54-18.19-40.54-40.54s18.19-40.54,40.54-40.54,40.54,18.19,40.54,40.54-18.19,40.54-40.54,40.54Zm0-68.08c-15.19,0-27.54,12.35-27.54,27.54s12.35,27.54,27.54,27.54,27.54-12.35,27.54-27.54-12.35-27.54-27.54-27.54Z"/>
        </g>
        <g>
          <path class="cls-1" d="m3377.04,6.5h-165.63c-45.21,0-81.85,36.65-81.85,81.85v392.66c0,45.21,36.65,81.85,81.85,81.85h236.3c45.21,0,81.85-36.65,81.85-81.85V159.02L3377.04,6.5Z"/>
          <path class="cls-9" d="m3447.7,569.36h-236.3c-48.72,0-88.35-39.63-88.35-88.35V88.35C3123.05,39.63,3162.69,0,3211.4,0h165.63c1.72,0,3.38.68,4.6,1.9l152.51,152.52c1.22,1.22,1.9,2.87,1.9,4.6v322c0,48.72-39.63,88.35-88.35,88.35ZM3211.4,13c-41.55,0-75.35,33.8-75.35,75.35v392.66c0,41.55,33.8,75.35,75.35,75.35h236.3c41.55,0,75.35-33.8,75.35-75.35V161.71l-148.71-148.71h-162.94Z"/>
        </g>
        <g>
          <path class="cls-8" d="m3377.04,6.5l152.52,152.52h-119.99c-17.96,0-32.53-14.56-32.53-32.53V6.5Z"/>
          <path class="cls-9" d="m3529.57,165.52s-.01,0-.02,0h-119.99c-21.52,0-39.03-17.51-39.03-39.03V6.5c0-2.63,1.58-5,4.01-6.01,2.43-1.01,5.22-.45,7.08,1.41l152.22,152.22c1.36,1.19,2.22,2.94,2.22,4.89,0,3.59-2.91,6.5-6.5,6.5Zm-146.04-143.32v104.3c0,14.35,11.67,26.03,26.03,26.03h104.3l-130.32-130.32Z"/>
        </g>
        <g>
          <path class="cls-6" d="m3130.3,231.62c-20.22,0-36.61,16.39-36.61,36.61v153.31h.67c3.26-16.88,18.1-29.64,35.94-29.64h368.68v-160.28h-368.68Z"/>
          <path class="cls-9" d="m3094.36,428.03h-.67c-3.59,0-6.5-2.91-6.5-6.5v-153.31c0-23.77,19.34-43.11,43.11-43.11h368.68c3.59,0,6.5,2.91,6.5,6.5v160.28c0,3.59-2.91,6.5-6.5,6.5h-368.68c-14.4,0-26.83,10.25-29.56,24.37-.59,3.06-3.27,5.27-6.38,5.27Zm35.94-189.92c-16.6,0-30.11,13.51-30.11,30.11v129.44c7.84-7.64,18.53-12.27,30.11-12.27h362.18v-147.28h-362.18Z"/>
        </g>
      </g>
      <g>
        <path class="cls-1" d="m3183.36,348.37l34.96-76.44c1.23-2.71,3.08-4.31,6.15-4.31h.49c2.96,0,4.92,1.6,6.03,4.31l34.96,76.32c.37.86.62,1.72.62,2.46,0,2.58-2.09,4.68-4.68,4.68-2.34,0-3.94-1.6-4.8-3.57l-8.99-19.82h-47.27l-8.99,20.06c-.86,2.09-2.46,3.32-4.68,3.32-2.46,0-4.43-1.97-4.43-4.43,0-.74.12-1.6.62-2.59Zm60.93-25.23l-19.82-44.07-19.82,44.07h39.64Z"/>
        <path class="cls-1" d="m3276.92,311.94v-.25c0-24.37,18.22-44.56,43.58-44.56,13.91,0,22.77,4.55,30.77,11.2.98.86,1.97,2.22,1.97,3.94,0,2.59-2.34,4.8-4.92,4.8-1.35,0-2.46-.62-3.2-1.11-6.65-5.91-14.16-9.85-24.74-9.85-19.08,0-33.36,15.51-33.36,35.33v.25c0,19.94,14.4,35.57,33.36,35.57,10.71,0,18.22-3.69,25.6-10.46.74-.74,1.85-1.35,3.08-1.35,2.46,0,4.68,2.22,4.68,4.68,0,1.48-.74,2.71-1.6,3.45-8.49,7.75-17.85,12.68-32,12.68-24.87,0-43.21-19.57-43.21-44.31Z"/>
        <path class="cls-1" d="m3371.58,349.85v-76.32c0-2.71,2.21-4.92,4.8-4.92h53.55c2.46,0,4.43,1.97,4.43,4.43s-1.97,4.43-4.43,4.43h-48.62v29.42h43.08c2.46,0,4.43,2.09,4.43,4.43,0,2.46-1.97,4.43-4.43,4.43h-43.08v30.16h49.24c2.46,0,4.43,1.97,4.43,4.43s-1.97,4.43-4.43,4.43h-54.16c-2.59,0-4.8-2.22-4.8-4.92Z"/>
      </g>
    </g>
    <g>
      <g>
        <g>
          <circle class="cls-3" cx="3127.21" cy="1182.43" r="34.04" transform="translate(-188.01 750.12) rotate(-13.28)"/>
          <path class="cls-9" d="m3127.21,1222.98c-22.35,0-40.54-18.19-40.54-40.54s18.19-40.54,40.54-40.54,40.54,18.19,40.54,40.54-18.19,40.54-40.54,40.54Zm0-68.08c-15.19,0-27.54,12.35-27.54,27.54s12.35,27.54,27.54,27.54,27.54-12.35,27.54-27.54-12.35-27.54-27.54-27.54Z"/>
        </g>
        <g>
          <path class="cls-1" d="m3377.04,761.02h-165.63c-45.21,0-81.85,36.65-81.85,81.85v392.66c0,45.21,36.65,81.85,81.85,81.85h236.3c45.21,0,81.85-36.65,81.85-81.85v-322l-152.52-152.52Z"/>
          <path class="cls-9" d="m3447.7,1323.89h-236.3c-48.72,0-88.35-39.63-88.35-88.35v-392.66c0-48.72,39.63-88.35,88.35-88.35h165.63c1.72,0,3.38.68,4.6,1.9l152.51,152.52c1.22,1.22,1.9,2.87,1.9,4.6v322c0,48.72-39.63,88.35-88.35,88.35Zm-236.3-556.36c-41.55,0-75.35,33.8-75.35,75.35v392.66c0,41.55,33.8,75.35,75.35,75.35h236.3c41.55,0,75.35-33.8,75.35-75.35v-319.3l-148.71-148.71h-162.94Z"/>
        </g>
        <g>
          <path class="cls-8" d="m3377.04,761.02l152.52,152.52h-119.99c-17.96,0-32.53-14.56-32.53-32.53v-119.99Z"/>
          <path class="cls-9" d="m3529.57,920.04s-.01,0-.02,0h-119.99c-21.52,0-39.03-17.51-39.03-39.03v-119.99c0-2.63,1.58-5,4.01-6.01,2.43-1,5.22-.45,7.08,1.41l152.22,152.22c1.36,1.19,2.22,2.94,2.22,4.89,0,3.59-2.91,6.5-6.5,6.5Zm-146.04-143.32v104.3c0,14.35,11.67,26.03,26.03,26.03h104.3l-130.32-130.32Z"/>
        </g>
        <g>
          <path class="cls-3" d="m3130.3,986.14c-20.22,0-36.61,16.39-36.61,36.61v153.31h.67c3.26-16.88,18.1-29.64,35.94-29.64h368.68v-160.28h-368.68Z"/>
          <path class="cls-9" d="m3094.36,1182.56h-.67c-3.59,0-6.5-2.91-6.5-6.5v-153.31c0-23.77,19.34-43.11,43.11-43.11h368.68c3.59,0,6.5,2.91,6.5,6.5v160.28c0,3.59-2.91,6.5-6.5,6.5h-368.68c-14.4,0-26.83,10.25-29.56,24.37-.59,3.06-3.27,5.27-6.38,5.27Zm35.94-189.92c-16.6,0-30.11,13.51-30.11,30.11v129.44c7.84-7.64,18.53-12.27,30.11-12.27h362.18v-147.28h-362.18Z"/>
        </g>
      </g>
      <g>
        <path class="cls-1" d="m3182.38,1026.51c0-2.71,2.21-4.92,4.8-4.92h31.88c9.85,0,17.6,2.83,22.53,7.63,3.57,3.69,5.54,8.25,5.54,13.79v.25c0,11.2-6.89,16.99-13.66,19.94,10.22,3.08,18.46,8.99,18.46,20.8v.25c0,14.77-12.43,23.51-31.27,23.51h-33.48c-2.58,0-4.8-2.22-4.8-4.92v-76.32Zm35.08,33.48c11.69,0,19.82-5.29,19.82-15.39v-.25c0-8.49-6.77-14.03-19.08-14.03h-26.22v29.67h25.48Zm3.45,39.02c13.05,0,21.17-5.79,21.17-15.39v-.25c0-9.36-7.88-14.77-22.89-14.77h-27.2v30.4h28.93Z"/>
        <path class="cls-1" d="m3271.25,1026.02c0-2.59,2.21-4.8,4.8-4.8h1.11c2.09,0,3.57,1.11,4.55,2.58l30.77,46.28,30.77-46.28c.98-1.6,2.58-2.58,4.55-2.58h1.11c2.58,0,4.8,2.22,4.8,4.8v77.43c0,2.71-2.22,4.92-4.8,4.92s-4.92-2.34-4.92-4.92v-64.25l-27.57,40.5c-1.11,1.6-2.34,2.46-4.06,2.46s-3.08-.86-4.18-2.46l-27.45-40.37v64.25c0,2.71-2.09,4.8-4.8,4.8s-4.68-2.09-4.68-4.8v-77.55Z"/>
        <path class="cls-1" d="m3378.1,1026.51c0-2.71,2.21-4.92,4.8-4.92h27.45c19.45,0,32.25,10.34,32.25,27.33v.25c0,18.59-15.51,28.19-33.85,28.19h-20.93v26.1c0,2.71-2.22,4.92-4.92,4.92s-4.8-2.22-4.8-4.92v-76.93Zm31.02,41.97c14.28,0,23.63-7.63,23.63-18.96v-.25c0-12.31-9.23-18.71-23.14-18.71h-21.79v37.91h21.29Z"/>
      </g>
    </g>
    <g>
      <g>
        <g>
          <circle class="cls-2" cx="3127.21" cy="1934.98" r="34.04" transform="translate(-452.3 2778.01) rotate(-45)"/>
          <path class="cls-9" d="m3127.21,1975.52c-22.35,0-40.54-18.19-40.54-40.54s18.19-40.54,40.54-40.54,40.54,18.19,40.54,40.54-18.19,40.54-40.54,40.54Zm0-68.08c-15.19,0-27.54,12.35-27.54,27.54s12.35,27.54,27.54,27.54,27.54-12.35,27.54-27.54-12.35-27.54-27.54-27.54Z"/>
        </g>
        <g>
          <path class="cls-1" d="m3377.04,1513.56h-165.63c-45.21,0-81.85,36.65-81.85,81.85v392.66c0,45.21,36.65,81.85,81.85,81.85h236.3c45.21,0,81.85-36.65,81.85-81.85v-322l-152.52-152.52Z"/>
          <path class="cls-9" d="m3447.7,2076.43h-236.3c-48.72,0-88.35-39.63-88.35-88.35v-392.66c0-48.72,39.63-88.35,88.35-88.35h165.63c1.72,0,3.38.68,4.6,1.9l152.51,152.52c1.22,1.22,1.9,2.87,1.9,4.6v322c0,48.72-39.63,88.35-88.35,88.35Zm-236.3-556.36c-41.55,0-75.35,33.8-75.35,75.35v392.66c0,41.55,33.8,75.35,75.35,75.35h236.3c41.55,0,75.35-33.8,75.35-75.35v-319.3l-148.71-148.71h-162.94Z"/>
        </g>
        <g>
          <path class="cls-8" d="m3377.04,1513.56l152.52,152.52h-119.99c-17.96,0-32.53-14.56-32.53-32.53v-119.99Z"/>
          <path class="cls-9" d="m3529.57,1672.58s-.01,0-.02,0h-119.99c-21.52,0-39.03-17.51-39.03-39.03v-119.99c0-2.63,1.58-5,4.01-6.01,2.43-1,5.22-.45,7.08,1.41l152.22,152.22c1.36,1.19,2.22,2.94,2.22,4.89,0,3.59-2.91,6.5-6.5,6.5Zm-146.04-143.32v104.3c0,14.35,11.67,26.03,26.03,26.03h104.3l-130.32-130.32Z"/>
        </g>
        <g>
          <path class="cls-2" d="m3130.3,1738.68c-20.22,0-36.61,16.39-36.61,36.61v153.31h.67c3.26-16.88,18.1-29.64,35.94-29.64h368.68v-160.28h-368.68Z"/>
          <path class="cls-9" d="m3094.36,1935.1h-.67c-3.59,0-6.5-2.91-6.5-6.5v-153.31c0-23.77,19.34-43.11,43.11-43.11h368.68c3.59,0,6.5,2.91,6.5,6.5v160.28c0,3.59-2.91,6.5-6.5,6.5h-368.68c-14.4,0-26.83,10.25-29.56,24.37-.59,3.06-3.27,5.27-6.38,5.27Zm35.94-189.92c-16.6,0-30.11,13.51-30.11,30.11v129.44c7.84-7.64,18.53-12.27,30.11-12.27h362.18v-147.28h-362.18Z"/>
        </g>
      </g>
      <g>
        <path class="cls-1" d="m3191.73,1779.49c0-2.71,2.21-4.92,4.8-4.92h27.45c19.45,0,32.25,10.34,32.25,27.33v.25c0,18.59-15.51,28.19-33.85,28.19h-20.93v26.1c0,2.71-2.21,4.92-4.92,4.92s-4.8-2.22-4.8-4.92v-76.93Zm31.02,41.97c14.28,0,23.63-7.63,23.63-18.96v-.25c0-12.31-9.23-18.71-23.14-18.71h-21.79v37.91h21.29Z"/>
        <path class="cls-1" d="m3273.96,1779.49c0-2.71,2.21-4.92,4.8-4.92h25.11c27.08,0,45.79,18.59,45.79,42.84v.25c0,24.25-18.71,43.08-45.79,43.08h-25.11c-2.58,0-4.8-2.22-4.8-4.92v-76.32Zm29.91,72.26c21.79,0,35.7-14.77,35.7-33.85v-.25c0-19.08-13.91-34.1-35.7-34.1h-20.19v68.19h20.19Z"/>
        <path class="cls-1" d="m3370.23,1779.49c0-2.71,2.21-4.92,4.8-4.92h53.3c2.46,0,4.43,1.97,4.43,4.43s-1.97,4.55-4.43,4.55h-48.38v30.77h42.84c2.46,0,4.43,1.97,4.43,4.43s-1.97,4.43-4.43,4.43h-42.84v33.23c0,2.71-2.21,4.92-4.92,4.92s-4.8-2.22-4.8-4.92v-76.93Z"/>
      </g>
    </g>
    <g>
      <g>
        <g>
          <circle class="cls-7" cx="3127.21" cy="2687.78" r="34.04"/>
          <path class="cls-9" d="m3127.21,2728.32c-22.35,0-40.54-18.19-40.54-40.54s18.19-40.54,40.54-40.54,40.54,18.19,40.54,40.54-18.19,40.54-40.54,40.54Zm0-68.08c-15.19,0-27.54,12.35-27.54,27.54s12.35,27.54,27.54,27.54,27.54-12.35,27.54-27.54-12.35-27.54-27.54-27.54Z"/>
        </g>
        <g>
          <path class="cls-1" d="m3377.04,2266.37h-165.63c-45.21,0-81.85,36.65-81.85,81.85v392.66c0,45.21,36.65,81.85,81.85,81.85h236.3c45.21,0,81.85-36.65,81.85-81.85v-322l-152.52-152.52Z"/>
          <path class="cls-9" d="m3447.7,2829.23h-236.3c-48.72,0-88.35-39.63-88.35-88.35v-392.66c0-48.72,39.63-88.35,88.35-88.35h165.63c1.72,0,3.38.68,4.6,1.9l152.51,152.52c1.22,1.22,1.9,2.87,1.9,4.6v322c0,48.72-39.63,88.35-88.35,88.35Zm-236.3-556.36c-41.55,0-75.35,33.8-75.35,75.35v392.66c0,41.55,33.8,75.35,75.35,75.35h236.3c41.55,0,75.35-33.8,75.35-75.35v-319.3l-148.71-148.71h-162.94Z"/>
        </g>
        <g>
          <path class="cls-8" d="m3377.04,2266.37l152.52,152.52h-119.99c-17.96,0-32.53-14.56-32.53-32.53v-119.99Z"/>
          <path class="cls-9" d="m3529.57,2425.39s-.01,0-.02,0h-119.99c-21.52,0-39.03-17.51-39.03-39.03v-119.99c0-2.63,1.58-5,4.01-6,2.43-1,5.22-.45,7.08,1.41l152.22,152.22c1.36,1.19,2.22,2.94,2.22,4.89,0,3.59-2.91,6.5-6.5,6.5Zm-146.04-143.32v104.3c0,14.35,11.67,26.03,26.03,26.03h104.3l-130.32-130.32Z"/>
        </g>
        <g>
          <path class="cls-7" d="m3130.3,2491.49c-20.22,0-36.61,16.39-36.61,36.61v153.31h.67c3.26-16.88,18.1-29.64,35.94-29.64h368.68v-160.28h-368.68Z"/>
          <path class="cls-9" d="m3094.36,2687.9h-.67c-3.59,0-6.5-2.91-6.5-6.5v-153.31c0-23.77,19.34-43.11,43.11-43.11h368.68c3.59,0,6.5,2.91,6.5,6.5v160.28c0,3.59-2.91,6.5-6.5,6.5h-368.68c-14.4,0-26.83,10.25-29.56,24.37-.59,3.06-3.27,5.27-6.38,5.27Zm35.94-189.92c-16.6,0-30.11,13.51-30.11,30.11v129.44c7.84-7.64,18.53-12.27,30.11-12.27h362.18v-147.28h-362.18Z"/>
        </g>
      </g>
      <g>
        <path class="cls-1" d="m3179.49,2570.88v-.25c0-24.37,18.22-44.56,43.58-44.56,13.91,0,22.77,4.55,30.77,11.2.98.86,1.97,2.22,1.97,3.94,0,2.58-2.34,4.8-4.92,4.8-1.35,0-2.46-.62-3.2-1.11-6.65-5.91-14.16-9.85-24.74-9.85-19.08,0-33.36,15.51-33.36,35.33v.25c0,19.94,14.4,35.57,33.36,35.57,10.71,0,18.22-3.69,25.6-10.46.74-.74,1.85-1.35,3.08-1.35,2.46,0,4.68,2.21,4.68,4.68,0,1.48-.74,2.71-1.6,3.45-8.49,7.75-17.85,12.68-32,12.68-24.87,0-43.21-19.57-43.21-44.31Z"/>
        <path class="cls-1" d="m3274.15,2532.48c0-2.71,2.21-4.92,4.8-4.92h25.11c27.08,0,45.79,18.59,45.79,42.84v.25c0,24.25-18.71,43.08-45.79,43.08h-25.11c-2.59,0-4.8-2.22-4.8-4.92v-76.32Zm29.91,72.26c21.79,0,35.7-14.77,35.7-33.85v-.25c0-19.08-13.91-34.1-35.7-34.1h-20.19v68.19h20.19Z"/>
        <path class="cls-1" d="m3370.41,2532.48c0-2.71,2.21-4.92,4.8-4.92h32.25c10.59,0,19.08,3.2,24.5,8.62,4.19,4.19,6.65,10.22,6.65,16.99v.25c0,14.16-9.6,22.4-23.02,24.99l21.42,27.57c.98,1.11,1.6,2.22,1.6,3.57,0,2.59-2.46,4.8-4.92,4.8-1.97,0-3.45-1.11-4.55-2.59l-24.25-31.51h-24.74v29.17c0,2.71-2.22,4.92-4.92,4.92s-4.8-2.22-4.8-4.92v-76.93Zm36.19,39.02c12.92,0,22.16-6.65,22.16-17.73v-.25c0-10.59-8.12-16.99-22.03-16.99h-26.59v34.96h26.46Z"/>
      </g>
    </g>
    <g>
      <g>
        <g>
          <circle class="cls-3" cx="3127.21" cy="3440.32" r="34.04" transform="translate(-1516.74 3218.92) rotate(-45)"/>
          <path class="cls-9" d="m3127.21,3480.86c-22.35,0-40.54-18.19-40.54-40.54s18.19-40.54,40.54-40.54,40.54,18.19,40.54,40.54-18.19,40.54-40.54,40.54Zm0-68.08c-15.19,0-27.54,12.35-27.54,27.54s12.35,27.54,27.54,27.54,27.54-12.35,27.54-27.54-12.35-27.54-27.54-27.54Z"/>
        </g>
        <g>
          <path class="cls-1" d="m3377.04,3018.91h-165.63c-45.21,0-81.85,36.65-81.85,81.85v392.66c0,45.21,36.65,81.85,81.85,81.85h236.3c45.21,0,81.85-36.65,81.85-81.85v-322l-152.52-152.52Z"/>
          <path class="cls-9" d="m3447.7,3581.77h-236.3c-48.72,0-88.35-39.63-88.35-88.35v-392.66c0-48.72,39.63-88.35,88.35-88.35h165.63c1.72,0,3.38.68,4.6,1.9l152.51,152.52c1.22,1.22,1.9,2.87,1.9,4.6v322c0,48.72-39.63,88.35-88.35,88.35Zm-236.3-556.36c-41.55,0-75.35,33.8-75.35,75.35v392.66c0,41.55,33.8,75.35,75.35,75.35h236.3c41.55,0,75.35-33.8,75.35-75.35v-319.3l-148.71-148.71h-162.94Z"/>
        </g>
        <g>
          <path class="cls-8" d="m3377.04,3018.91l152.52,152.52h-119.99c-17.96,0-32.53-14.56-32.53-32.53v-119.99Z"/>
          <path class="cls-9" d="m3529.57,3177.93s-.01,0-.02,0h-119.99c-21.52,0-39.03-17.51-39.03-39.03v-119.99c0-2.63,1.58-5,4.01-6,2.43-1,5.22-.45,7.08,1.41l152.22,152.22c1.36,1.19,2.22,2.94,2.22,4.89,0,3.59-2.91,6.5-6.5,6.5Zm-146.04-143.32v104.3c0,14.35,11.67,26.03,26.03,26.03h104.3l-130.32-130.32Z"/>
        </g>
        <g>
          <path class="cls-3" d="m3130.3,3244.03c-20.22,0-36.61,16.39-36.61,36.61v153.31h.67c3.26-16.88,18.1-29.64,35.94-29.64h368.68v-160.28h-368.68Z"/>
          <path class="cls-9" d="m3094.36,3440.45h-.67c-3.59,0-6.5-2.91-6.5-6.5v-153.31c0-23.77,19.34-43.11,43.11-43.11h368.68c3.59,0,6.5,2.91,6.5,6.5v160.28c0,3.59-2.91,6.5-6.5,6.5h-368.68c-14.4,0-26.83,10.25-29.56,24.37-.59,3.06-3.27,5.27-6.38,5.27Zm35.94-189.92c-16.6,0-30.11,13.51-30.11,30.11v129.44c7.84-7.64,18.53-12.27,30.11-12.27h362.18v-147.28h-362.18Z"/>
        </g>
      </g>
      <g>
        <path class="cls-1" d="m3131.85,3285.46c0-2.71,2.21-4.92,4.8-4.92h25.11c27.08,0,45.79,18.59,45.79,42.84v.25c0,24.25-18.71,43.08-45.79,43.08h-25.11c-2.58,0-4.8-2.22-4.8-4.92v-76.32Zm29.91,72.26c21.79,0,35.7-14.77,35.7-33.85v-.25c0-19.08-13.91-34.1-35.7-34.1h-20.19v68.19h20.19Z"/>
        <path class="cls-1" d="m3224.29,3323.86v-.25c0-23.76,17.85-44.56,44.07-44.56s43.82,20.56,43.82,44.31v.25c0,23.76-17.85,44.56-44.07,44.56s-43.82-20.56-43.82-44.31Zm77.79,0v-.25c0-19.57-14.28-35.57-33.97-35.57s-33.73,15.76-33.73,35.33v.25c0,19.57,14.28,35.57,33.97,35.57s33.73-15.76,33.73-35.33Z"/>
        <path class="cls-1" d="m3328.93,3323.86v-.25c0-24.37,18.22-44.56,43.58-44.56,13.91,0,22.77,4.55,30.77,11.2.98.86,1.97,2.22,1.97,3.94,0,2.58-2.34,4.8-4.92,4.8-1.35,0-2.46-.62-3.2-1.11-6.65-5.91-14.16-9.85-24.74-9.85-19.08,0-33.36,15.51-33.36,35.33v.25c0,19.94,14.4,35.57,33.36,35.57,10.71,0,18.22-3.69,25.6-10.46.74-.74,1.85-1.35,3.08-1.35,2.46,0,4.68,2.21,4.68,4.68,0,1.48-.74,2.71-1.6,3.45-8.49,7.75-17.85,12.68-32,12.68-24.87,0-43.21-19.57-43.21-44.31Z"/>
        <path class="cls-1" d="m3419.65,3359.31l28.8-36.56-27.33-34.47c-.86-1.11-1.6-2.22-1.6-3.69,0-2.46,2.09-4.68,4.8-4.68,1.97,0,3.08.98,4.31,2.46l25.97,33.73,25.6-33.36c1.35-1.6,2.58-2.83,4.68-2.83,2.34,0,4.43,1.97,4.43,4.55,0,1.23-.49,2.46-1.35,3.45l-27.45,34.71,28.43,36.31c.98,1.11,1.6,2.22,1.6,3.57,0,2.59-2.09,4.8-4.8,4.8-1.97,0-3.08-.98-4.31-2.46l-27.2-35.33-26.83,34.96c-1.35,1.6-2.59,2.83-4.8,2.83s-4.31-1.97-4.31-4.55c0-1.23.49-2.46,1.35-3.45Z"/>
      </g>
    </g>
  </g>
</svg>